# MagicaVoxel @ Ephtracy

# group
o 

# material
mtllib PickableTimePepeGame-0.mtl
usemtl palette

# normals
vn -1 0 0
vn 1 0 0
vn 0 0 1
vn 0 0 -1
vn 0 -1 0
vn 0 1 0

# texcoords
vt 0.724609 0.5
vt 0.751953 0.5
vt 0.888672 0.5

# verts
v 2.1 0.5 -1.8
v 2.1 0.5 -1.9
v 2.1 1.2 -1.8
v 2.1 1.2 -1.9
v 2.2 0.3 -1.8
v 2.2 0.3 -1.9
v 2.2 0.5 -1.8
v 2.2 0.5 -1.9
v 2.2 1.2 -1.8
v 2.2 1.2 -1.9
v 2.2 1.4 -1.8
v 2.2 1.4 -1.9
v 2.3 0.2 -1.8
v 2.3 0.2 -1.9
v 2.3 0.3 -1.8
v 2.3 0.3 -1.9
v 2.3 1.4 -1.8
v 2.3 1.4 -1.9
v 2.3 1.5 -1.8
v 2.3 1.5 -1.9
v 2.4 0.1 -1.8
v 2.4 0.1 -1.9
v 2.4 0.2 -1.8
v 2.4 0.2 -1.9
v 2.4 1.5 -1.8
v 2.4 1.5 -1.9
v 2.4 1.6 -1.8
v 2.4 1.6 -1.9
v 2.6 0 -1.8
v 2.6 0 -1.9
v 2.6 0.1 -1.8
v 2.6 0.1 -1.9
v 2.6 1.6 -1.8
v 2.6 1.6 -1.9
v 2.6 1.7 -1.8
v 2.6 1.7 -1.9
v 3.1 0.3 -1.7
v 3.1 0.3 -1.8
v 3.1 0.3 -1.9
v 3.1 0.3 -2
v 3.1 0.5 -1.7
v 3.1 0.5 -1.8
v 3.1 0.5 -1.9
v 3.1 0.5 -2
v 3.3 0 -1.8
v 3.3 0 -1.9
v 3.3 0.1 -1.8
v 3.3 0.1 -1.9
v 3.3 1.6 -1.8
v 3.3 1.6 -1.9
v 3.3 1.7 -1.8
v 3.3 1.7 -1.9
v 3.5 0.1 -1.8
v 3.5 0.1 -1.9
v 3.5 0.2 -1.8
v 3.5 0.2 -1.9
v 3.5 1.5 -1.8
v 3.5 1.5 -1.9
v 3.5 1.6 -1.8
v 3.5 1.6 -1.9
v 3.6 0.2 -1.8
v 3.6 0.2 -1.9
v 3.6 0.3 -1.8
v 3.6 0.3 -1.9
v 3.6 1.4 -1.8
v 3.6 1.4 -1.9
v 3.6 1.5 -1.8
v 3.6 1.5 -1.9
v 3.7 1.2 -1.8
v 3.7 1.2 -1.9
v 3.7 1.4 -1.8
v 3.7 1.4 -1.9
v 3.8 0.5 -1.8
v 3.8 0.5 -1.9
v 3.8 1.2 -1.8
v 3.8 1.2 -1.9
v 3.9 0.3 -1.7
v 3.9 0.3 -2
v 3.9 0.5 -1.7
v 3.9 0.5 -2
v 3.1 0.3 -1.7
v 3.1 0.5 -1.7
v 3.9 0.3 -1.7
v 3.9 0.5 -1.7
v 2.1 0.5 -1.8
v 2.1 1.2 -1.8
v 2.2 0.3 -1.8
v 2.2 0.5 -1.8
v 2.2 0.8 -1.8
v 2.2 0.9 -1.8
v 2.2 1.2 -1.8
v 2.2 1.4 -1.8
v 2.3 0.2 -1.8
v 2.3 0.3 -1.8
v 2.3 0.5 -1.8
v 2.3 1.2 -1.8
v 2.3 1.4 -1.8
v 2.3 1.5 -1.8
v 2.4 0.1 -1.8
v 2.4 0.2 -1.8
v 2.4 0.3 -1.8
v 2.4 0.4 -1.8
v 2.4 0.8 -1.8
v 2.4 0.9 -1.8
v 2.4 1.3 -1.8
v 2.4 1.4 -1.8
v 2.4 1.5 -1.8
v 2.4 1.6 -1.8
v 2.5 0.3 -1.8
v 2.5 0.4 -1.8
v 2.5 0.5 -1.8
v 2.5 1.2 -1.8
v 2.5 1.3 -1.8
v 2.5 1.4 -1.8
v 2.6 0 -1.8
v 2.6 0.1 -1.8
v 2.6 0.2 -1.8
v 2.6 0.4 -1.8
v 2.6 0.5 -1.8
v 2.6 1.2 -1.8
v 2.6 1.3 -1.8
v 2.6 1.5 -1.8
v 2.6 1.6 -1.8
v 2.6 1.7 -1.8
v 2.9 0.1 -1.8
v 2.9 0.3 -1.8
v 2.9 0.8 -1.8
v 2.9 0.9 -1.8
v 2.9 1.3 -1.8
v 2.9 1.4 -1.8
v 2.9 1.6 -1.8
v 3 0.1 -1.8
v 3 0.3 -1.8
v 3 0.8 -1.8
v 3 0.9 -1.8
v 3 1.3 -1.8
v 3 1.4 -1.8
v 3 1.6 -1.8
v 3.1 0.3 -1.8
v 3.1 0.5 -1.8
v 3.2 0.8 -1.8
v 3.2 0.9 -1.8
v 3.3 0 -1.8
v 3.3 0.1 -1.8
v 3.3 0.2 -1.8
v 3.3 1.2 -1.8
v 3.3 1.3 -1.8
v 3.3 1.5 -1.8
v 3.3 1.6 -1.8
v 3.3 1.7 -1.8
v 3.4 1.2 -1.8
v 3.4 1.3 -1.8
v 3.4 1.4 -1.8
v 3.5 0.1 -1.8
v 3.5 0.2 -1.8
v 3.5 0.3 -1.8
v 3.5 0.8 -1.8
v 3.5 0.9 -1.8
v 3.5 1.3 -1.8
v 3.5 1.4 -1.8
v 3.5 1.5 -1.8
v 3.5 1.6 -1.8
v 3.6 0.2 -1.8
v 3.6 0.3 -1.8
v 3.6 1.2 -1.8
v 3.6 1.4 -1.8
v 3.6 1.5 -1.8
v 3.7 0.5 -1.8
v 3.7 0.8 -1.8
v 3.7 0.9 -1.8
v 3.7 1.2 -1.8
v 3.7 1.4 -1.8
v 3.8 0.5 -1.8
v 3.8 1.2 -1.8
v 2.1 0.5 -1.9
v 2.1 1.2 -1.9
v 2.2 0.3 -1.9
v 2.2 0.5 -1.9
v 2.2 0.8 -1.9
v 2.2 0.9 -1.9
v 2.2 1.2 -1.9
v 2.2 1.4 -1.9
v 2.3 0.2 -1.9
v 2.3 0.3 -1.9
v 2.3 0.5 -1.9
v 2.3 1.2 -1.9
v 2.3 1.4 -1.9
v 2.3 1.5 -1.9
v 2.4 0.1 -1.9
v 2.4 0.2 -1.9
v 2.4 0.3 -1.9
v 2.4 0.4 -1.9
v 2.4 0.8 -1.9
v 2.4 0.9 -1.9
v 2.4 1.3 -1.9
v 2.4 1.4 -1.9
v 2.4 1.5 -1.9
v 2.4 1.6 -1.9
v 2.5 0.3 -1.9
v 2.5 0.4 -1.9
v 2.5 0.5 -1.9
v 2.5 1.2 -1.9
v 2.5 1.3 -1.9
v 2.5 1.4 -1.9
v 2.6 0 -1.9
v 2.6 0.1 -1.9
v 2.6 0.2 -1.9
v 2.6 0.4 -1.9
v 2.6 0.5 -1.9
v 2.6 1.2 -1.9
v 2.6 1.3 -1.9
v 2.6 1.5 -1.9
v 2.6 1.6 -1.9
v 2.6 1.7 -1.9
v 2.9 0.1 -1.9
v 2.9 0.3 -1.9
v 2.9 0.8 -1.9
v 2.9 0.9 -1.9
v 2.9 1.3 -1.9
v 2.9 1.4 -1.9
v 2.9 1.6 -1.9
v 3 0.1 -1.9
v 3 0.3 -1.9
v 3 0.8 -1.9
v 3 0.9 -1.9
v 3 1.3 -1.9
v 3 1.4 -1.9
v 3 1.6 -1.9
v 3.1 0.3 -1.9
v 3.1 0.5 -1.9
v 3.2 0.8 -1.9
v 3.2 0.9 -1.9
v 3.3 0 -1.9
v 3.3 0.1 -1.9
v 3.3 0.2 -1.9
v 3.3 1.2 -1.9
v 3.3 1.3 -1.9
v 3.3 1.5 -1.9
v 3.3 1.6 -1.9
v 3.3 1.7 -1.9
v 3.4 1.2 -1.9
v 3.4 1.3 -1.9
v 3.4 1.4 -1.9
v 3.5 0.1 -1.9
v 3.5 0.2 -1.9
v 3.5 0.3 -1.9
v 3.5 0.8 -1.9
v 3.5 0.9 -1.9
v 3.5 1.3 -1.9
v 3.5 1.4 -1.9
v 3.5 1.5 -1.9
v 3.5 1.6 -1.9
v 3.6 0.2 -1.9
v 3.6 0.3 -1.9
v 3.6 1.2 -1.9
v 3.6 1.4 -1.9
v 3.6 1.5 -1.9
v 3.7 0.5 -1.9
v 3.7 0.8 -1.9
v 3.7 0.9 -1.9
v 3.7 1.2 -1.9
v 3.7 1.4 -1.9
v 3.8 0.5 -1.9
v 3.8 1.2 -1.9
v 3.1 0.3 -2
v 3.1 0.5 -2
v 3.9 0.3 -2
v 3.9 0.5 -2
v 2.6 0 -1.8
v 3.3 0 -1.8
v 2.6 0 -1.9
v 3.3 0 -1.9
v 2.4 0.1 -1.8
v 2.6 0.1 -1.8
v 3.3 0.1 -1.8
v 3.5 0.1 -1.8
v 2.4 0.1 -1.9
v 2.6 0.1 -1.9
v 3.3 0.1 -1.9
v 3.5 0.1 -1.9
v 2.3 0.2 -1.8
v 2.4 0.2 -1.8
v 3.5 0.2 -1.8
v 3.6 0.2 -1.8
v 2.3 0.2 -1.9
v 2.4 0.2 -1.9
v 3.5 0.2 -1.9
v 3.6 0.2 -1.9
v 3.1 0.3 -1.7
v 3.9 0.3 -1.7
v 2.2 0.3 -1.8
v 2.3 0.3 -1.8
v 3.1 0.3 -1.8
v 3.5 0.3 -1.8
v 3.6 0.3 -1.8
v 2.2 0.3 -1.9
v 2.3 0.3 -1.9
v 3.1 0.3 -1.9
v 3.5 0.3 -1.9
v 3.6 0.3 -1.9
v 3.1 0.3 -2
v 3.9 0.3 -2
v 2.1 0.5 -1.8
v 2.2 0.5 -1.8
v 2.1 0.5 -1.9
v 2.2 0.5 -1.9
v 3.1 0.5 -1.7
v 3.9 0.5 -1.7
v 3.1 0.5 -1.8
v 3.7 0.5 -1.8
v 3.8 0.5 -1.8
v 3.1 0.5 -1.9
v 3.7 0.5 -1.9
v 3.8 0.5 -1.9
v 3.1 0.5 -2
v 3.9 0.5 -2
v 2.1 1.2 -1.8
v 2.2 1.2 -1.8
v 3.7 1.2 -1.8
v 3.8 1.2 -1.8
v 2.1 1.2 -1.9
v 2.2 1.2 -1.9
v 3.7 1.2 -1.9
v 3.8 1.2 -1.9
v 2.2 1.4 -1.8
v 2.3 1.4 -1.8
v 3.6 1.4 -1.8
v 3.7 1.4 -1.8
v 2.2 1.4 -1.9
v 2.3 1.4 -1.9
v 3.6 1.4 -1.9
v 3.7 1.4 -1.9
v 2.3 1.5 -1.8
v 2.4 1.5 -1.8
v 3.5 1.5 -1.8
v 3.6 1.5 -1.8
v 2.3 1.5 -1.9
v 2.4 1.5 -1.9
v 3.5 1.5 -1.9
v 3.6 1.5 -1.9
v 2.4 1.6 -1.8
v 2.6 1.6 -1.8
v 3.3 1.6 -1.8
v 3.5 1.6 -1.8
v 2.4 1.6 -1.9
v 2.6 1.6 -1.9
v 3.3 1.6 -1.9
v 3.5 1.6 -1.9
v 2.6 1.7 -1.8
v 3.3 1.7 -1.8
v 2.6 1.7 -1.9
v 3.3 1.7 -1.9

# faces
f 3/2/1 2/2/1 1/2/1
f 4/2/1 2/2/1 3/2/1
f 7/2/1 6/2/1 5/2/1
f 8/2/1 6/2/1 7/2/1
f 11/2/1 10/2/1 9/2/1
f 12/2/1 10/2/1 11/2/1
f 15/2/1 14/2/1 13/2/1
f 16/2/1 14/2/1 15/2/1
f 19/2/1 18/2/1 17/2/1
f 20/2/1 18/2/1 19/2/1
f 23/2/1 22/2/1 21/2/1
f 24/2/1 22/2/1 23/2/1
f 27/2/1 26/2/1 25/2/1
f 28/2/1 26/2/1 27/2/1
f 31/2/1 30/2/1 29/2/1
f 32/2/1 30/2/1 31/2/1
f 35/2/1 34/2/1 33/2/1
f 36/2/1 34/2/1 35/2/1
f 41/1/1 38/1/1 37/1/1
f 42/1/1 38/1/1 41/1/1
f 43/1/1 40/1/1 39/1/1
f 44/1/1 40/1/1 43/1/1
f 45/2/2 46/2/2 47/2/2
f 47/2/2 46/2/2 48/2/2
f 49/2/2 50/2/2 51/2/2
f 51/2/2 50/2/2 52/2/2
f 53/2/2 54/2/2 55/2/2
f 55/2/2 54/2/2 56/2/2
f 57/2/2 58/2/2 59/2/2
f 59/2/2 58/2/2 60/2/2
f 61/2/2 62/2/2 63/2/2
f 63/2/2 62/2/2 64/2/2
f 65/2/2 66/2/2 67/2/2
f 67/2/2 66/2/2 68/2/2
f 69/2/2 70/2/2 71/2/2
f 71/2/2 70/2/2 72/2/2
f 73/2/2 74/2/2 75/2/2
f 75/2/2 74/2/2 76/2/2
f 77/1/2 78/1/2 79/1/2
f 79/1/2 78/1/2 80/1/2
f 83/1/3 82/1/3 81/1/3
f 84/1/3 82/1/3 83/1/3
f 88/2/3 86/2/3 85/2/3
f 89/2/3 86/2/3 88/2/3
f 90/2/3 86/2/3 89/2/3
f 91/2/3 86/2/3 90/2/3
f 94/2/3 88/2/3 87/2/3
f 95/3/3 89/3/3 88/3/3
f 95/2/3 88/2/3 94/2/3
f 96/2/3 92/2/3 91/2/3
f 96/3/3 91/3/3 90/3/3
f 97/2/3 92/2/3 96/2/3
f 100/2/3 94/2/3 93/2/3
f 101/3/3 95/3/3 94/3/3
f 101/2/3 94/2/3 100/2/3
f 102/3/3 95/3/3 101/3/3
f 103/3/3 89/3/3 95/3/3
f 103/3/3 95/3/3 102/3/3
f 103/2/3 90/2/3 89/2/3
f 104/3/3 96/3/3 90/3/3
f 104/2/3 90/2/3 103/2/3
f 104/3/3 97/3/3 96/3/3
f 105/3/3 97/3/3 104/3/3
f 106/2/3 98/2/3 97/2/3
f 106/3/3 97/3/3 105/3/3
f 107/2/3 98/2/3 106/2/3
f 109/2/3 102/2/3 101/2/3
f 109/3/3 101/3/3 100/3/3
f 110/3/3 105/3/3 104/3/3
f 110/2/3 102/2/3 109/2/3
f 110/3/3 103/3/3 102/3/3
f 110/3/3 104/3/3 103/3/3
f 111/3/3 105/3/3 110/3/3
f 112/3/3 105/3/3 111/3/3
f 113/2/3 106/2/3 105/2/3
f 113/3/3 105/3/3 112/3/3
f 114/3/3 107/3/3 106/3/3
f 114/2/3 106/2/3 113/2/3
f 116/2/3 100/2/3 99/2/3
f 117/3/3 109/3/3 100/3/3
f 117/3/3 110/3/3 109/3/3
f 117/2/3 100/2/3 116/2/3
f 118/2/3 111/2/3 110/2/3
f 118/3/3 110/3/3 117/3/3
f 119/3/3 112/3/3 111/3/3
f 119/2/3 111/2/3 118/2/3
f 120/2/3 113/2/3 112/2/3
f 120/3/3 112/3/3 119/3/3
f 121/3/3 114/3/3 113/3/3
f 121/2/3 113/2/3 120/2/3
f 122/2/3 108/2/3 107/2/3
f 122/3/3 114/3/3 121/3/3
f 122/3/3 107/3/3 114/3/3
f 123/2/3 108/2/3 122/2/3
f 125/3/3 121/3/3 120/3/3
f 125/2/3 116/2/3 115/2/3
f 125/3/3 123/3/3 122/3/3
f 125/3/3 122/3/3 121/3/3
f 125/3/3 117/3/3 116/3/3
f 125/3/3 119/3/3 118/3/3
f 125/3/3 120/3/3 119/3/3
f 125/3/3 118/3/3 117/3/3
f 126/3/3 123/3/3 125/3/3
f 127/3/3 123/3/3 126/3/3
f 128/3/3 123/3/3 127/3/3
f 129/3/3 123/3/3 128/3/3
f 130/3/3 123/3/3 129/3/3
f 131/2/3 124/2/3 123/2/3
f 131/3/3 123/3/3 130/3/3
f 132/2/3 125/2/3 115/2/3
f 132/2/3 126/2/3 125/2/3
f 133/3/3 127/3/3 126/3/3
f 133/2/3 126/2/3 132/2/3
f 134/2/3 128/2/3 127/2/3
f 134/3/3 127/3/3 133/3/3
f 135/1/3 129/1/3 128/1/3
f 135/2/3 128/2/3 134/2/3
f 136/3/3 130/3/3 129/3/3
f 136/1/3 129/1/3 135/1/3
f 137/2/3 131/2/3 130/2/3
f 137/3/3 130/3/3 136/3/3
f 138/2/3 124/2/3 131/2/3
f 138/2/3 131/2/3 137/2/3
f 139/3/3 133/3/3 132/3/3
f 139/3/3 134/3/3 133/3/3
f 140/3/3 134/3/3 139/3/3
f 141/1/3 135/1/3 134/1/3
f 141/3/3 134/3/3 140/3/3
f 142/3/3 137/3/3 136/3/3
f 142/1/3 135/1/3 141/1/3
f 142/3/3 136/3/3 135/3/3
f 142/3/3 138/3/3 137/3/3
f 143/2/3 132/2/3 115/2/3
f 144/3/3 139/3/3 132/3/3
f 144/2/3 132/2/3 143/2/3
f 145/3/3 139/3/3 144/3/3
f 146/3/3 138/3/3 142/3/3
f 146/3/3 142/3/3 141/3/3
f 147/3/3 138/3/3 146/3/3
f 148/3/3 138/3/3 147/3/3
f 149/2/3 124/2/3 138/2/3
f 149/3/3 138/3/3 148/3/3
f 150/2/3 124/2/3 149/2/3
f 151/3/3 146/3/3 141/3/3
f 151/2/3 147/2/3 146/2/3
f 152/3/3 148/3/3 147/3/3
f 152/2/3 147/2/3 151/2/3
f 153/3/3 148/3/3 152/3/3
f 154/2/3 145/2/3 144/2/3
f 155/3/3 139/3/3 145/3/3
f 155/2/3 145/2/3 154/2/3
f 156/3/3 139/3/3 155/3/3
f 157/3/3 141/3/3 140/3/3
f 157/3/3 151/3/3 141/3/3
f 157/3/3 152/3/3 151/3/3
f 158/3/3 152/3/3 157/3/3
f 159/2/3 153/2/3 152/2/3
f 159/3/3 152/3/3 158/3/3
f 160/3/3 148/3/3 153/3/3
f 160/2/3 153/2/3 159/2/3
f 161/2/3 149/2/3 148/2/3
f 161/3/3 148/3/3 160/3/3
f 162/2/3 149/2/3 161/2/3
f 163/2/3 156/2/3 155/2/3
f 164/2/3 156/2/3 163/2/3
f 165/3/3 159/3/3 158/3/3
f 165/3/3 160/3/3 159/3/3
f 166/2/3 161/2/3 160/2/3
f 166/3/3 160/3/3 165/3/3
f 167/2/3 161/2/3 166/2/3
f 168/3/3 157/3/3 140/3/3
f 169/2/3 158/2/3 157/2/3
f 169/3/3 157/3/3 168/3/3
f 170/3/3 165/3/3 158/3/3
f 170/2/3 158/2/3 169/2/3
f 171/2/3 166/2/3 165/2/3
f 171/3/3 165/3/3 170/3/3
f 172/2/3 166/2/3 171/2/3
f 173/2/3 169/2/3 168/2/3
f 173/2/3 170/2/3 169/2/3
f 173/2/3 171/2/3 170/2/3
f 174/2/3 171/2/3 173/2/3
f 175/2/4 176/2/4 178/2/4
f 178/2/4 176/2/4 179/2/4
f 179/2/4 176/2/4 180/2/4
f 180/2/4 176/2/4 181/2/4
f 177/2/4 178/2/4 184/2/4
f 178/3/4 179/3/4 185/3/4
f 184/2/4 178/2/4 185/2/4
f 181/2/4 182/2/4 186/2/4
f 180/3/4 181/3/4 186/3/4
f 186/2/4 182/2/4 187/2/4
f 183/2/4 184/2/4 190/2/4
f 184/3/4 185/3/4 191/3/4
f 190/2/4 184/2/4 191/2/4
f 191/3/4 185/3/4 192/3/4
f 185/3/4 179/3/4 193/3/4
f 192/3/4 185/3/4 193/3/4
f 179/2/4 180/2/4 193/2/4
f 180/3/4 186/3/4 194/3/4
f 193/2/4 180/2/4 194/2/4
f 186/3/4 187/3/4 194/3/4
f 194/3/4 187/3/4 195/3/4
f 187/2/4 188/2/4 196/2/4
f 195/3/4 187/3/4 196/3/4
f 196/2/4 188/2/4 197/2/4
f 191/2/4 192/2/4 199/2/4
f 190/3/4 191/3/4 199/3/4
f 194/3/4 195/3/4 200/3/4
f 199/2/4 192/2/4 200/2/4
f 192/3/4 193/3/4 200/3/4
f 193/3/4 194/3/4 200/3/4
f 200/3/4 195/3/4 201/3/4
f 201/3/4 195/3/4 202/3/4
f 195/2/4 196/2/4 203/2/4
f 202/3/4 195/3/4 203/3/4
f 196/3/4 197/3/4 204/3/4
f 203/2/4 196/2/4 204/2/4
f 189/2/4 190/2/4 206/2/4
f 190/3/4 199/3/4 207/3/4
f 199/3/4 200/3/4 207/3/4
f 206/2/4 190/2/4 207/2/4
f 200/2/4 201/2/4 208/2/4
f 207/3/4 200/3/4 208/3/4
f 201/3/4 202/3/4 209/3/4
f 208/2/4 201/2/4 209/2/4
f 202/2/4 203/2/4 210/2/4
f 209/3/4 202/3/4 210/3/4
f 203/3/4 204/3/4 211/3/4
f 210/2/4 203/2/4 211/2/4
f 197/2/4 198/2/4 212/2/4
f 211/3/4 204/3/4 212/3/4
f 204/3/4 197/3/4 212/3/4
f 212/2/4 198/2/4 213/2/4
f 210/3/4 211/3/4 215/3/4
f 205/2/4 206/2/4 215/2/4
f 212/3/4 213/3/4 215/3/4
f 211/3/4 212/3/4 215/3/4
f 206/3/4 207/3/4 215/3/4
f 208/3/4 209/3/4 215/3/4
f 209/3/4 210/3/4 215/3/4
f 207/3/4 208/3/4 215/3/4
f 215/3/4 213/3/4 216/3/4
f 216/3/4 213/3/4 217/3/4
f 217/3/4 213/3/4 218/3/4
f 218/3/4 213/3/4 219/3/4
f 219/3/4 213/3/4 220/3/4
f 213/2/4 214/2/4 221/2/4
f 220/3/4 213/3/4 221/3/4
f 205/2/4 215/2/4 222/2/4
f 215/2/4 216/2/4 222/2/4
f 216/3/4 217/3/4 223/3/4
f 222/2/4 216/2/4 223/2/4
f 217/2/4 218/2/4 224/2/4
f 223/3/4 217/3/4 224/3/4
f 218/1/4 219/1/4 225/1/4
f 224/2/4 218/2/4 225/2/4
f 219/3/4 220/3/4 226/3/4
f 225/1/4 219/1/4 226/1/4
f 220/2/4 221/2/4 227/2/4
f 226/3/4 220/3/4 227/3/4
f 221/2/4 214/2/4 228/2/4
f 227/2/4 221/2/4 228/2/4
f 222/3/4 223/3/4 229/3/4
f 223/3/4 224/3/4 229/3/4
f 229/3/4 224/3/4 230/3/4
f 224/1/4 225/1/4 231/1/4
f 230/3/4 224/3/4 231/3/4
f 226/3/4 227/3/4 232/3/4
f 231/1/4 225/1/4 232/1/4
f 225/3/4 226/3/4 232/3/4
f 227/3/4 228/3/4 232/3/4
f 205/2/4 222/2/4 233/2/4
f 222/3/4 229/3/4 234/3/4
f 233/2/4 222/2/4 234/2/4
f 234/3/4 229/3/4 235/3/4
f 232/3/4 228/3/4 236/3/4
f 231/3/4 232/3/4 236/3/4
f 236/3/4 228/3/4 237/3/4
f 237/3/4 228/3/4 238/3/4
f 228/2/4 214/2/4 239/2/4
f 238/3/4 228/3/4 239/3/4
f 239/2/4 214/2/4 240/2/4
f 231/3/4 236/3/4 241/3/4
f 236/2/4 237/2/4 241/2/4
f 237/3/4 238/3/4 242/3/4
f 241/2/4 237/2/4 242/2/4
f 242/3/4 238/3/4 243/3/4
f 234/2/4 235/2/4 244/2/4
f 235/3/4 229/3/4 245/3/4
f 244/2/4 235/2/4 245/2/4
f 245/3/4 229/3/4 246/3/4
f 230/3/4 231/3/4 247/3/4
f 231/3/4 241/3/4 247/3/4
f 241/3/4 242/3/4 247/3/4
f 247/3/4 242/3/4 248/3/4
f 242/2/4 243/2/4 249/2/4
f 248/3/4 242/3/4 249/3/4
f 243/3/4 238/3/4 250/3/4
f 249/2/4 243/2/4 250/2/4
f 238/2/4 239/2/4 251/2/4
f 250/3/4 238/3/4 251/3/4
f 251/2/4 239/2/4 252/2/4
f 245/2/4 246/2/4 253/2/4
f 253/2/4 246/2/4 254/2/4
f 248/3/4 249/3/4 255/3/4
f 249/3/4 250/3/4 255/3/4
f 250/2/4 251/2/4 256/2/4
f 255/3/4 250/3/4 256/3/4
f 256/2/4 251/2/4 257/2/4
f 230/3/4 247/3/4 258/3/4
f 247/2/4 248/2/4 259/2/4
f 258/3/4 247/3/4 259/3/4
f 248/3/4 255/3/4 260/3/4
f 259/2/4 248/2/4 260/2/4
f 255/2/4 256/2/4 261/2/4
f 260/3/4 255/3/4 261/3/4
f 261/2/4 256/2/4 262/2/4
f 258/2/4 259/2/4 263/2/4
f 259/2/4 260/2/4 263/2/4
f 260/2/4 261/2/4 263/2/4
f 263/2/4 261/2/4 264/2/4
f 265/1/4 266/1/4 267/1/4
f 267/1/4 266/1/4 268/1/4
f 271/2/5 270/2/5 269/2/5
f 272/2/5 270/2/5 271/2/5
f 277/2/5 274/2/5 273/2/5
f 278/2/5 274/2/5 277/2/5
f 279/2/5 276/2/5 275/2/5
f 280/2/5 276/2/5 279/2/5
f 285/2/5 282/2/5 281/2/5
f 286/2/5 282/2/5 285/2/5
f 287/2/5 284/2/5 283/2/5
f 288/2/5 284/2/5 287/2/5
f 293/1/5 290/1/5 289/1/5
f 294/1/5 290/1/5 293/1/5
f 295/1/5 290/1/5 294/1/5
f 296/2/5 292/2/5 291/2/5
f 297/2/5 292/2/5 296/2/5
f 300/1/5 290/1/5 295/1/5
f 301/1/5 299/1/5 298/1/5
f 301/1/5 300/1/5 299/1/5
f 302/1/5 290/1/5 300/1/5
f 302/1/5 300/1/5 301/1/5
f 305/2/5 304/2/5 303/2/5
f 306/2/5 304/2/5 305/2/5
f 307/1/6 308/1/6 309/1/6
f 309/1/6 308/1/6 310/1/6
f 310/1/6 308/1/6 311/1/6
f 311/1/6 308/1/6 314/1/6
f 312/1/6 313/1/6 315/1/6
f 313/1/6 314/1/6 315/1/6
f 314/1/6 308/1/6 316/1/6
f 315/1/6 314/1/6 316/1/6
f 317/2/6 318/2/6 321/2/6
f 321/2/6 318/2/6 322/2/6
f 319/2/6 320/2/6 323/2/6
f 323/2/6 320/2/6 324/2/6
f 325/2/6 326/2/6 329/2/6
f 329/2/6 326/2/6 330/2/6
f 327/2/6 328/2/6 331/2/6
f 331/2/6 328/2/6 332/2/6
f 333/2/6 334/2/6 337/2/6
f 337/2/6 334/2/6 338/2/6
f 335/2/6 336/2/6 339/2/6
f 339/2/6 336/2/6 340/2/6
f 341/2/6 342/2/6 345/2/6
f 345/2/6 342/2/6 346/2/6
f 343/2/6 344/2/6 347/2/6
f 347/2/6 344/2/6 348/2/6
f 349/2/6 350/2/6 351/2/6
f 351/2/6 350/2/6 352/2/6
