# MagicaVoxel @ Ephtracy

# group
o 

# material
mtllib frog-0.mtl
usemtl palette

# normals
vn -1 0 0
vn 1 0 0
vn 0 0 1
vn 0 0 -1
vn 0 -1 0
vn 0 1 0

# texcoords
vt 0.720703 0.5
vt 0.724609 0.5
vt 0.736328 0.5

# verts
v -0.4 0.3 2.2
v -0.4 0.3 1.9
v -0.4 0.4 2.2
v -0.4 0.4 2.1
v -0.4 0.4 2
v -0.4 0.4 1.9
v -0.4 0.5 2.2
v -0.4 0.5 2.1
v -0.4 0.5 2
v -0.4 0.6 2.2
v -0.4 0.6 2.1
v -0.4 0.6 1.9
v 0 0.3 2.2
v 0 0.3 1.9
v 0 0.4 2.2
v 0 0.4 2.1
v 0 0.4 1.9
v 0 0.5 2.2
v 0 0.5 2.1
v 0 0.5 2
v 0 0.6 2.2
v 0 0.6 2.1
v 0 0.6 2
v 0 0.6 1.9
v -0.4 0.3 2.2
v -0.4 0.4 2.2
v -0.4 0.5 2.2
v -0.4 0.6 2.2
v -0.3 0.4 2.2
v -0.3 0.5 2.2
v -0.3 0.6 2.2
v -0.2 0.4 2.2
v -0.2 0.5 2.2
v -0.2 0.6 2.2
v -0.1 0.4 2.2
v -0.1 0.5 2.2
v -0.1 0.6 2.2
v 0 0.3 2.2
v 0 0.4 2.2
v 0 0.5 2.2
v 0 0.6 2.2
v -0.4 0.3 1.9
v -0.4 0.4 1.9
v -0.4 0.6 1.9
v 0 0.3 1.9
v 0 0.4 1.9
v 0 0.6 1.9
v -0.4 0.3 2.2
v 0 0.3 2.2
v -0.4 0.3 1.9
v 0 0.3 1.9
v -0.4 0.6 2.2
v -0.3 0.6 2.2
v -0.2 0.6 2.2
v -0.1 0.6 2.2
v 0 0.6 2.2
v -0.4 0.6 2.1
v -0.3 0.6 2.1
v -0.2 0.6 2.1
v -0.1 0.6 2.1
v 0 0.6 2.1
v -0.3 0.6 2
v -0.2 0.6 2
v -0.1 0.6 2
v 0 0.6 2
v -0.4 0.6 1.9
v 0 0.6 1.9

# faces
f 3/1/1 2/1/1 1/1/1
f 4/1/1 2/1/1 3/1/1
f 5/1/1 2/1/1 4/1/1
f 6/1/1 2/1/1 5/1/1
f 7/2/1 4/2/1 3/2/1
f 8/3/1 5/3/1 4/3/1
f 8/2/1 4/2/1 7/2/1
f 9/2/1 6/2/1 5/2/1
f 9/3/1 5/3/1 8/3/1
f 10/3/1 8/3/1 7/3/1
f 11/2/1 9/2/1 8/2/1
f 11/3/1 8/3/1 10/3/1
f 12/2/1 6/2/1 9/2/1
f 12/2/1 9/2/1 11/2/1
f 13/1/2 14/1/2 15/1/2
f 15/1/2 14/1/2 16/1/2
f 16/1/2 14/1/2 17/1/2
f 15/3/2 16/3/2 18/3/2
f 16/2/2 17/2/2 19/2/2
f 18/3/2 16/3/2 19/3/2
f 19/2/2 17/2/2 20/2/2
f 18/2/2 19/2/2 21/2/2
f 19/3/2 20/3/2 22/3/2
f 21/2/2 19/2/2 22/2/2
f 20/2/2 17/2/2 23/2/2
f 22/3/2 20/3/2 23/3/2
f 23/2/2 17/2/2 24/2/2
f 29/1/3 26/1/3 25/1/3
f 29/2/3 27/2/3 26/2/3
f 30/3/3 28/3/3 27/3/3
f 30/2/3 27/2/3 29/2/3
f 31/3/3 28/3/3 30/3/3
f 32/1/3 29/1/3 25/1/3
f 32/3/3 30/3/3 29/3/3
f 33/2/3 31/2/3 30/2/3
f 33/3/3 30/3/3 32/3/3
f 34/2/3 31/2/3 33/2/3
f 35/1/3 32/1/3 25/1/3
f 35/2/3 33/2/3 32/2/3
f 36/3/3 34/3/3 33/3/3
f 36/2/3 33/2/3 35/2/3
f 37/3/3 34/3/3 36/3/3
f 38/1/3 35/1/3 25/1/3
f 39/3/3 36/3/3 35/3/3
f 39/1/3 35/1/3 38/1/3
f 40/2/3 37/2/3 36/2/3
f 40/3/3 36/3/3 39/3/3
f 41/2/3 37/2/3 40/2/3
f 42/1/4 43/1/4 45/1/4
f 43/2/4 44/2/4 46/2/4
f 45/1/4 43/1/4 46/1/4
f 46/2/4 44/2/4 47/2/4
f 50/1/5 49/1/5 48/1/5
f 51/1/5 49/1/5 50/1/5
f 52/3/6 53/3/6 57/3/6
f 53/2/6 54/2/6 58/2/6
f 57/3/6 53/3/6 58/3/6
f 54/3/6 55/3/6 59/3/6
f 58/2/6 54/2/6 59/2/6
f 55/2/6 56/2/6 60/2/6
f 59/3/6 55/3/6 60/3/6
f 60/2/6 56/2/6 61/2/6
f 58/3/6 59/3/6 62/3/6
f 57/2/6 58/2/6 62/2/6
f 59/2/6 60/2/6 63/2/6
f 62/3/6 59/3/6 63/3/6
f 60/3/6 61/3/6 64/3/6
f 63/2/6 60/2/6 64/2/6
f 64/3/6 61/3/6 65/3/6
f 62/2/6 63/2/6 66/2/6
f 57/2/6 62/2/6 66/2/6
f 64/2/6 65/2/6 66/2/6
f 63/2/6 64/2/6 66/2/6
f 66/2/6 65/2/6 67/2/6
