# MagicaVoxel @ Ephtracy

# group
o 

# material
mtllib frog-2.mtl
usemtl palette

# normals
vn -1 0 0
vn 1 0 0
vn 0 0 1
vn 0 0 -1
vn 0 -1 0
vn 0 1 0

# texcoords
vt 0.720703 0.5
vt 0.724609 0.5
vt 0.728516 0.5
vt 0.732422 0.5
vt 0.736328 0.5
vt 0.751953 0.5
vt 0.888672 0.5

# verts
v -1 0.4 1.1
v -1 0.4 1
v -1 0.4 0.9
v -1 0.4 0.6
v -1 0.4 0.5
v -1 0.4 0.4
v -1 0.5 1
v -1 0.5 0.9
v -1 0.5 0.8
v -1 0.5 0.7
v -1 0.5 0.6
v -1 0.5 0.5
v -1 0.6 1.1
v -1 0.6 0.9
v -1 0.6 0.8
v -1 0.6 0.7
v -1 0.6 0.6
v -1 0.6 0.4
v -1 0.7 1.1
v -1 0.7 0.9
v -1 0.7 0.6
v -1 0.7 0.4
v -1 0.8 0.9
v -1 0.8 0.6
v -1 0.9 1.1
v -1 0.9 0.4
v -0.9 0.9 1.1
v -0.9 0.9 0.9
v -0.9 0.9 0.8
v -0.9 0.9 0.7
v -0.9 0.9 0.6
v -0.9 0.9 0.4
v -0.9 1 1.1
v -0.9 1 1
v -0.9 1 0.9
v -0.9 1 0.8
v -0.9 1 0.7
v -0.9 1 0.6
v -0.9 1 0.5
v -0.9 1 0.4
v -0.9 1.1 1.1
v -0.9 1.1 1
v -0.9 1.1 0.9
v -0.9 1.1 0.8
v -0.9 1.1 0.7
v -0.9 1.1 0.6
v -0.9 1.1 0.5
v -0.9 1.1 0.4
v -0.6 0.9 1.1
v -0.6 0.9 1
v -0.6 0.9 0.9
v -0.6 0.9 0.8
v -0.6 0.9 0.7
v -0.6 0.9 0.6
v -0.6 0.9 0.4
v -0.6 1 1
v -0.6 1 0.9
v -0.6 1 0.7
v -0.6 1 0.6
v -0.6 1 0.5
v -0.6 1 0.4
v -0.6 1.1 1.1
v -0.6 1.1 1
v -0.6 1.1 0.9
v -0.6 1.1 0.8
v -0.6 1.1 0.7
v -0.6 1.1 0.6
v -0.6 1.1 0.5
v -0.6 1.1 0.4
v -0.1 0.4 1.1
v -0.1 0.4 0.8
v -0.1 0.4 0.7
v -0.1 0.4 0.4
v -0.1 0.5 1
v -0.1 0.5 0.9
v -0.1 0.5 0.8
v -0.1 0.5 0.7
v -0.1 0.6 1.1
v -0.1 0.6 1
v -0.1 0.6 0.9
v -0.1 0.6 0.8
v -0.1 0.6 0.7
v -0.1 0.6 0.6
v -0.1 0.6 0.5
v -0.1 0.7 1.1
v -0.1 0.7 1
v -0.1 0.7 0.9
v -0.1 0.7 0.8
v -0.1 0.7 0.7
v -0.1 0.7 0.6
v -0.1 0.7 0.5
v -0.1 0.8 1.1
v -0.1 0.8 1
v -0.1 0.8 0.9
v -0.1 0.8 0.8
v -0.1 0.8 0.7
v -0.1 0.8 0.6
v -0.1 0.8 0.5
v -0.1 0.9 1.1
v -0.1 0.9 1
v -0.1 0.9 0.8
v -0.1 0.9 0.7
v -0.1 0.9 0.6
v -0.1 0.9 0.5
v -0.1 0.9 0.4
v -1 0.4 1.1
v -1 0.6 1.1
v -1 0.7 1.1
v -1 0.9 1.1
v -0.9 0.9 1.1
v -0.9 1 1.1
v -0.9 1.1 1.1
v -0.8 0.5 1.1
v -0.8 0.6 1.1
v -0.8 0.8 1.1
v -0.8 0.9 1.1
v -0.8 1 1.1
v -0.8 1.1 1.1
v -0.7 0.4 1.1
v -0.7 0.5 1.1
v -0.7 0.6 1.1
v -0.7 0.7 1.1
v -0.7 0.8 1.1
v -0.7 0.9 1.1
v -0.7 1 1.1
v -0.7 1.1 1.1
v -0.6 0.5 1.1
v -0.6 0.6 1.1
v -0.6 0.7 1.1
v -0.6 0.8 1.1
v -0.6 0.9 1.1
v -0.6 1.1 1.1
v -0.5 0.5 1.1
v -0.5 0.6 1.1
v -0.5 0.7 1.1
v -0.5 0.8 1.1
v -0.4 0.6 1.1
v -0.4 0.7 1.1
v -0.4 0.8 1.1
v -0.4 0.9 1.1
v -0.3 0.6 1.1
v -0.3 0.7 1.1
v -0.3 0.8 1.1
v -0.3 0.9 1.1
v -0.2 0.6 1.1
v -0.2 0.7 1.1
v -0.2 0.8 1.1
v -0.2 0.9 1.1
v -0.1 0.4 1.1
v -0.1 0.6 1.1
v -0.1 0.7 1.1
v -0.1 0.8 1.1
v -0.1 0.9 1.1
v -0.9 0.9 0.7
v -0.9 1 0.7
v -0.9 1.1 0.7
v -0.8 0.9 0.7
v -0.8 1 0.7
v -0.7 1 0.7
v -0.7 1.1 0.7
v -0.6 0.9 0.7
v -0.6 1 0.7
v -0.6 1.1 0.7
v -0.9 0.9 0.8
v -0.9 1 0.8
v -0.9 1.1 0.8
v -0.8 0.9 0.8
v -0.8 1 0.8
v -0.6 0.9 0.8
v -0.6 1.1 0.8
v -1 0.4 0.4
v -1 0.6 0.4
v -1 0.7 0.4
v -1 0.9 0.4
v -0.9 0.7 0.4
v -0.9 0.8 0.4
v -0.9 0.9 0.4
v -0.9 1 0.4
v -0.9 1.1 0.4
v -0.8 0.5 0.4
v -0.8 0.6 0.4
v -0.8 0.7 0.4
v -0.8 0.8 0.4
v -0.8 0.9 0.4
v -0.8 1 0.4
v -0.7 0.4 0.4
v -0.7 0.5 0.4
v -0.7 0.6 0.4
v -0.7 0.7 0.4
v -0.7 0.8 0.4
v -0.7 0.9 0.4
v -0.7 1 0.4
v -0.7 1.1 0.4
v -0.6 0.4 0.4
v -0.6 0.5 0.4
v -0.6 0.6 0.4
v -0.6 0.7 0.4
v -0.6 0.9 0.4
v -0.6 1 0.4
v -0.6 1.1 0.4
v -0.5 0.4 0.4
v -0.5 0.5 0.4
v -0.5 0.6 0.4
v -0.5 0.7 0.4
v -0.4 0.6 0.4
v -0.4 0.8 0.4
v -0.4 0.9 0.4
v -0.3 0.7 0.4
v -0.3 0.8 0.4
v -0.3 0.9 0.4
v -0.2 0.6 0.4
v -0.2 0.7 0.4
v -0.2 0.8 0.4
v -0.2 0.9 0.4
v -0.1 0.4 0.4
v -0.1 0.9 0.4
v -1 0.4 1.1
v -0.7 0.4 1.1
v -0.1 0.4 1.1
v -1 0.4 1
v -0.9 0.4 1
v -0.7 0.4 1
v -1 0.4 0.9
v -0.9 0.4 0.9
v -0.2 0.4 0.8
v -0.1 0.4 0.8
v -0.2 0.4 0.7
v -0.1 0.4 0.7
v -1 0.4 0.6
v -0.9 0.4 0.6
v -1 0.4 0.5
v -0.9 0.4 0.5
v -0.7 0.4 0.5
v -0.6 0.4 0.5
v -0.5 0.4 0.5
v -1 0.4 0.4
v -0.7 0.4 0.4
v -0.6 0.4 0.4
v -0.5 0.4 0.4
v -0.1 0.4 0.4
v -1 0.9 1.1
v -0.9 0.9 1.1
v -0.6 0.9 1.1
v -0.4 0.9 1.1
v -0.3 0.9 1.1
v -0.2 0.9 1.1
v -0.1 0.9 1.1
v -0.6 0.9 1
v -0.5 0.9 1
v -0.4 0.9 1
v -0.3 0.9 1
v -0.2 0.9 1
v -0.1 0.9 1
v -0.9 0.9 0.9
v -0.6 0.9 0.9
v -0.5 0.9 0.9
v -0.4 0.9 0.9
v -0.3 0.9 0.9
v -0.2 0.9 0.9
v -0.9 0.9 0.8
v -0.8 0.9 0.8
v -0.6 0.9 0.8
v -0.5 0.9 0.8
v -0.4 0.9 0.8
v -0.2 0.9 0.8
v -0.1 0.9 0.8
v -0.9 0.9 0.7
v -0.8 0.9 0.7
v -0.6 0.9 0.7
v -0.4 0.9 0.7
v -0.3 0.9 0.7
v -0.2 0.9 0.7
v -0.1 0.9 0.7
v -0.9 0.9 0.6
v -0.6 0.9 0.6
v -0.5 0.9 0.6
v -0.4 0.9 0.6
v -0.3 0.9 0.6
v -0.2 0.9 0.6
v -0.1 0.9 0.6
v -0.5 0.9 0.5
v -0.4 0.9 0.5
v -0.3 0.9 0.5
v -0.2 0.9 0.5
v -0.1 0.9 0.5
v -1 0.9 0.4
v -0.9 0.9 0.4
v -0.6 0.9 0.4
v -0.4 0.9 0.4
v -0.3 0.9 0.4
v -0.2 0.9 0.4
v -0.1 0.9 0.4
v -0.9 1.1 1.1
v -0.8 1.1 1.1
v -0.7 1.1 1.1
v -0.6 1.1 1.1
v -0.9 1.1 1
v -0.8 1.1 1
v -0.7 1.1 1
v -0.6 1.1 1
v -0.9 1.1 0.9
v -0.8 1.1 0.9
v -0.7 1.1 0.9
v -0.6 1.1 0.9
v -0.9 1.1 0.8
v -0.6 1.1 0.8
v -0.9 1.1 0.7
v -0.7 1.1 0.7
v -0.6 1.1 0.7
v -0.9 1.1 0.6
v -0.8 1.1 0.6
v -0.7 1.1 0.6
v -0.6 1.1 0.6
v -0.9 1.1 0.5
v -0.8 1.1 0.5
v -0.7 1.1 0.5
v -0.6 1.1 0.5
v -0.9 1.1 0.4
v -0.7 1.1 0.4
v -0.6 1.1 0.4

# faces
f 7/3/1 2/3/1 1/3/1
f 7/4/1 3/4/1 2/4/1
f 8/3/1 4/3/1 3/3/1
f 8/4/1 3/4/1 7/4/1
f 9/3/1 4/3/1 8/3/1
f 10/3/1 4/3/1 9/3/1
f 11/4/1 5/4/1 4/4/1
f 11/3/1 4/3/1 10/3/1
f 12/3/1 6/3/1 5/3/1
f 12/4/1 5/4/1 11/4/1
f 13/3/1 7/3/1 1/3/1
f 13/3/1 8/3/1 7/3/1
f 14/4/1 9/4/1 8/4/1
f 14/3/1 8/3/1 13/3/1
f 15/3/1 10/3/1 9/3/1
f 15/4/1 9/4/1 14/4/1
f 16/4/1 11/4/1 10/4/1
f 16/3/1 10/3/1 15/3/1
f 17/3/1 12/3/1 11/3/1
f 17/4/1 11/4/1 16/4/1
f 18/3/1 6/3/1 12/3/1
f 18/3/1 12/3/1 17/3/1
f 19/1/1 14/1/1 13/1/1
f 20/3/1 15/3/1 14/3/1
f 20/1/1 14/1/1 19/1/1
f 20/3/1 17/3/1 16/3/1
f 20/3/1 16/3/1 15/3/1
f 21/1/1 18/1/1 17/1/1
f 21/3/1 17/3/1 20/3/1
f 22/1/1 18/1/1 21/1/1
f 23/2/1 20/2/1 19/2/1
f 23/1/1 21/1/1 20/1/1
f 24/2/1 22/2/1 21/2/1
f 24/1/1 21/1/1 23/1/1
f 25/2/1 23/2/1 19/2/1
f 25/2/1 24/2/1 23/2/1
f 26/2/1 22/2/1 24/2/1
f 26/2/1 24/2/1 25/2/1
f 33/6/1 28/6/1 27/6/1
f 34/6/1 28/6/1 33/6/1
f 35/7/1 29/7/1 28/7/1
f 35/6/1 28/6/1 34/6/1
f 36/7/1 29/7/1 35/7/1
f 37/7/1 31/7/1 30/7/1
f 38/6/1 32/6/1 31/6/1
f 38/7/1 31/7/1 37/7/1
f 39/6/1 32/6/1 38/6/1
f 40/6/1 32/6/1 39/6/1
f 41/2/1 34/2/1 33/2/1
f 42/5/1 35/5/1 34/5/1
f 42/2/1 34/2/1 41/2/1
f 43/2/1 36/2/1 35/2/1
f 43/5/1 35/5/1 42/5/1
f 44/2/1 36/2/1 43/2/1
f 45/2/1 38/2/1 37/2/1
f 46/5/1 39/5/1 38/5/1
f 46/2/1 38/2/1 45/2/1
f 47/2/1 40/2/1 39/2/1
f 47/5/1 39/5/1 46/5/1
f 48/2/1 40/2/1 47/2/1
f 49/2/2 50/2/2 56/2/2
f 50/2/2 51/2/2 56/2/2
f 51/2/2 52/2/2 56/2/2
f 56/2/2 52/2/2 57/2/2
f 54/2/2 55/2/2 58/2/2
f 53/2/2 54/2/2 58/2/2
f 58/2/2 55/2/2 59/2/2
f 59/2/2 55/2/2 60/2/2
f 60/2/2 55/2/2 61/2/2
f 49/2/2 56/2/2 62/2/2
f 56/5/2 57/5/2 63/5/2
f 62/2/2 56/2/2 63/2/2
f 57/2/2 52/2/2 64/2/2
f 63/5/2 57/5/2 64/5/2
f 64/2/2 52/2/2 65/2/2
f 58/5/2 59/5/2 66/5/2
f 59/2/2 60/2/2 67/2/2
f 66/5/2 59/5/2 67/5/2
f 60/5/2 61/5/2 68/5/2
f 67/2/2 60/2/2 68/2/2
f 68/5/2 61/5/2 69/5/2
f 70/2/2 71/2/2 74/2/2
f 74/2/2 71/2/2 75/2/2
f 71/5/2 72/5/2 76/5/2
f 75/2/2 71/2/2 76/2/2
f 72/2/2 73/2/2 77/2/2
f 76/5/2 72/5/2 77/5/2
f 70/2/2 74/2/2 78/2/2
f 74/5/2 75/5/2 79/5/2
f 78/2/2 74/2/2 79/2/2
f 75/2/2 76/2/2 80/2/2
f 79/5/2 75/5/2 80/5/2
f 76/2/2 77/2/2 80/2/2
f 80/2/2 77/2/2 81/2/2
f 77/2/2 73/2/2 82/2/2
f 81/2/2 77/2/2 82/2/2
f 82/2/2 73/2/2 83/2/2
f 83/2/2 73/2/2 84/2/2
f 78/5/2 79/5/2 85/5/2
f 80/2/2 81/2/2 86/2/2
f 85/5/2 79/5/2 86/5/2
f 79/2/2 80/2/2 86/2/2
f 86/2/2 81/2/2 87/2/2
f 81/5/2 82/5/2 88/5/2
f 87/2/2 81/2/2 88/2/2
f 82/2/2 83/2/2 89/2/2
f 88/5/2 82/5/2 89/5/2
f 83/5/2 84/5/2 90/5/2
f 89/2/2 83/2/2 90/2/2
f 84/2/2 73/2/2 91/2/2
f 90/5/2 84/5/2 91/5/2
f 85/2/2 86/2/2 92/2/2
f 86/5/2 87/5/2 93/5/2
f 92/2/2 86/2/2 93/2/2
f 89/2/2 90/2/2 94/2/2
f 93/5/2 87/5/2 94/5/2
f 88/2/2 89/2/2 94/2/2
f 90/2/2 91/2/2 94/2/2
f 87/2/2 88/2/2 94/2/2
f 94/2/2 91/2/2 95/2/2
f 95/2/2 91/2/2 96/2/2
f 96/2/2 91/2/2 97/2/2
f 91/2/2 73/2/2 98/2/2
f 97/2/2 91/2/2 98/2/2
f 92/5/2 93/5/2 99/5/2
f 93/2/2 94/2/2 100/2/2
f 99/5/2 93/5/2 100/5/2
f 94/2/2 95/2/2 100/2/2
f 95/5/2 96/5/2 101/5/2
f 100/2/2 95/2/2 101/2/2
f 96/2/2 97/2/2 102/2/2
f 101/5/2 96/5/2 102/5/2
f 97/5/2 98/5/2 103/5/2
f 102/2/2 97/2/2 103/2/2
f 98/2/2 73/2/2 104/2/2
f 103/5/2 98/5/2 104/5/2
f 104/2/2 73/2/2 105/2/2
f 110/2/3 109/2/3 108/2/3
f 113/3/3 107/3/3 106/3/3
f 114/1/3 108/1/3 107/1/3
f 114/3/3 107/3/3 113/3/3
f 115/2/3 110/2/3 108/2/3
f 116/6/3 111/6/3 110/6/3
f 116/2/3 110/2/3 115/2/3
f 117/2/3 112/2/3 111/2/3
f 117/6/3 111/6/3 116/6/3
f 118/2/3 112/2/3 117/2/3
f 119/3/3 113/3/3 106/3/3
f 120/4/3 114/4/3 113/4/3
f 120/3/3 113/3/3 119/3/3
f 121/1/3 108/1/3 114/1/3
f 121/4/3 114/4/3 120/4/3
f 122/2/3 115/2/3 108/2/3
f 122/1/3 108/1/3 121/1/3
f 123/5/3 116/5/3 115/5/3
f 123/2/3 115/2/3 122/2/3
f 124/2/3 117/2/3 116/2/3
f 124/5/3 116/5/3 123/5/3
f 125/5/3 118/5/3 117/5/3
f 125/2/3 117/2/3 124/2/3
f 126/5/3 118/5/3 125/5/3
f 127/2/3 122/2/3 121/2/3
f 127/2/3 120/2/3 119/2/3
f 127/2/3 126/2/3 125/2/3
f 127/2/3 125/2/3 124/2/3
f 127/2/3 124/2/3 123/2/3
f 127/2/3 123/2/3 122/2/3
f 127/2/3 121/2/3 120/2/3
f 128/2/3 126/2/3 127/2/3
f 129/2/3 126/2/3 128/2/3
f 130/2/3 126/2/3 129/2/3
f 131/2/3 126/2/3 130/2/3
f 132/2/3 126/2/3 131/2/3
f 133/2/3 127/2/3 119/2/3
f 133/5/3 128/5/3 127/5/3
f 134/2/3 129/2/3 128/2/3
f 134/5/3 128/5/3 133/5/3
f 135/5/3 130/5/3 129/5/3
f 135/2/3 129/2/3 134/2/3
f 136/2/3 131/2/3 130/2/3
f 136/5/3 130/5/3 135/5/3
f 137/2/3 135/2/3 134/2/3
f 137/2/3 134/2/3 133/2/3
f 137/2/3 136/2/3 135/2/3
f 138/2/3 136/2/3 137/2/3
f 139/2/3 131/2/3 136/2/3
f 139/2/3 136/2/3 138/2/3
f 140/2/3 131/2/3 139/2/3
f 141/5/3 138/5/3 137/5/3
f 141/2/3 137/2/3 133/2/3
f 142/2/3 139/2/3 138/2/3
f 142/5/3 138/5/3 141/5/3
f 143/5/3 140/5/3 139/5/3
f 143/2/3 139/2/3 142/2/3
f 144/5/3 140/5/3 143/5/3
f 145/2/3 142/2/3 141/2/3
f 145/2/3 141/2/3 133/2/3
f 145/2/3 144/2/3 143/2/3
f 145/2/3 143/2/3 142/2/3
f 146/2/3 144/2/3 145/2/3
f 147/2/3 144/2/3 146/2/3
f 148/2/3 144/2/3 147/2/3
f 149/2/3 133/2/3 119/2/3
f 149/2/3 145/2/3 133/2/3
f 150/5/3 146/5/3 145/5/3
f 150/2/3 145/2/3 149/2/3
f 151/2/3 147/2/3 146/2/3
f 151/5/3 146/5/3 150/5/3
f 152/5/3 148/5/3 147/5/3
f 152/2/3 147/2/3 151/2/3
f 153/5/3 148/5/3 152/5/3
f 157/7/3 155/7/3 154/7/3
f 158/2/3 156/2/3 155/2/3
f 158/7/3 155/7/3 157/7/3
f 159/2/3 158/2/3 157/2/3
f 159/2/3 156/2/3 158/2/3
f 160/2/3 156/2/3 159/2/3
f 161/2/3 159/2/3 157/2/3
f 162/5/3 160/5/3 159/5/3
f 162/2/3 159/2/3 161/2/3
f 163/5/3 160/5/3 162/5/3
f 164/7/4 165/7/4 167/7/4
f 165/2/4 166/2/4 168/2/4
f 167/7/4 165/7/4 168/7/4
f 167/2/4 168/2/4 169/2/4
f 168/2/4 166/2/4 170/2/4
f 169/2/4 168/2/4 170/2/4
f 172/1/4 173/1/4 175/1/4
f 173/2/4 174/2/4 175/2/4
f 175/2/4 174/2/4 176/2/4
f 176/2/4 174/2/4 177/2/4
f 171/3/4 172/3/4 180/3/4
f 172/1/4 175/1/4 181/1/4
f 180/3/4 172/3/4 181/3/4
f 175/5/4 176/5/4 182/5/4
f 181/1/4 175/1/4 182/1/4
f 176/2/4 177/2/4 183/2/4
f 182/5/4 176/5/4 183/5/4
f 177/6/4 178/6/4 184/6/4
f 183/2/4 177/2/4 184/2/4
f 178/2/4 179/2/4 185/2/4
f 184/6/4 178/6/4 185/6/4
f 171/3/4 180/3/4 186/3/4
f 180/4/4 181/4/4 187/4/4
f 186/3/4 180/3/4 187/3/4
f 181/1/4 182/1/4 188/1/4
f 187/4/4 181/4/4 188/4/4
f 183/2/4 184/2/4 189/2/4
f 188/1/4 182/1/4 189/1/4
f 182/2/4 183/2/4 189/2/4
f 184/2/4 185/2/4 189/2/4
f 189/2/4 185/2/4 190/2/4
f 190/2/4 185/2/4 191/2/4
f 185/2/4 179/2/4 192/2/4
f 191/2/4 185/2/4 192/2/4
f 192/2/4 179/2/4 193/2/4
f 187/2/4 188/2/4 194/2/4
f 186/2/4 187/2/4 194/2/4
f 188/2/4 189/2/4 194/2/4
f 189/2/4 190/2/4 194/2/4
f 194/2/4 190/2/4 195/2/4
f 195/2/4 190/2/4 196/2/4
f 196/2/4 190/2/4 197/2/4
f 190/5/4 191/5/4 198/5/4
f 191/2/4 192/2/4 198/2/4
f 192/5/4 193/5/4 199/5/4
f 198/2/4 192/2/4 199/2/4
f 199/5/4 193/5/4 200/5/4
f 194/5/4 195/5/4 201/5/4
f 195/2/4 196/2/4 202/2/4
f 201/5/4 195/5/4 202/5/4
f 196/5/4 197/5/4 203/5/4
f 202/2/4 196/2/4 203/2/4
f 197/2/4 190/2/4 204/2/4
f 203/5/4 197/5/4 204/5/4
f 202/2/4 203/2/4 205/2/4
f 201/2/4 202/2/4 205/2/4
f 203/2/4 204/2/4 205/2/4
f 204/2/4 190/2/4 206/2/4
f 205/2/4 204/2/4 206/2/4
f 190/5/4 198/5/4 206/5/4
f 206/5/4 198/5/4 207/5/4
f 205/5/4 206/5/4 208/5/4
f 206/2/4 207/2/4 209/2/4
f 208/5/4 206/5/4 209/5/4
f 209/2/4 207/2/4 210/2/4
f 201/2/4 205/2/4 211/2/4
f 205/5/4 208/5/4 211/5/4
f 208/2/4 209/2/4 212/2/4
f 211/5/4 208/5/4 212/5/4
f 209/5/4 210/5/4 213/5/4
f 212/2/4 209/2/4 213/2/4
f 213/5/4 210/5/4 214/5/4
f 211/2/4 212/2/4 215/2/4
f 201/2/4 211/2/4 215/2/4
f 213/2/4 214/2/4 215/2/4
f 212/2/4 213/2/4 215/2/4
f 215/2/4 214/2/4 216/2/4
f 220/3/5 218/3/5 217/3/5
f 221/3/5 218/3/5 220/3/5
f 222/2/5 219/2/5 218/2/5
f 222/3/5 218/3/5 221/3/5
f 223/4/5 221/4/5 220/4/5
f 224/2/5 222/2/5 221/2/5
f 224/4/5 221/4/5 223/4/5
f 225/2/5 219/2/5 222/2/5
f 225/2/5 222/2/5 224/2/5
f 226/2/5 219/2/5 225/2/5
f 227/2/5 225/2/5 224/2/5
f 227/5/5 226/5/5 225/5/5
f 228/5/5 226/5/5 227/5/5
f 229/3/5 224/3/5 223/3/5
f 230/2/5 227/2/5 224/2/5
f 230/3/5 224/3/5 229/3/5
f 230/2/5 228/2/5 227/2/5
f 231/4/5 230/4/5 229/4/5
f 232/2/5 228/2/5 230/2/5
f 232/4/5 230/4/5 231/4/5
f 233/2/5 228/2/5 232/2/5
f 234/2/5 228/2/5 233/2/5
f 235/2/5 228/2/5 234/2/5
f 236/3/5 232/3/5 231/3/5
f 236/3/5 233/3/5 232/3/5
f 237/2/5 234/2/5 233/2/5
f 237/3/5 233/3/5 236/3/5
f 238/5/5 235/5/5 234/5/5
f 238/2/5 234/2/5 237/2/5
f 239/2/5 228/2/5 235/2/5
f 239/5/5 235/5/5 238/5/5
f 240/2/5 228/2/5 239/2/5
f 243/2/6 244/2/6 248/2/6
f 248/2/6 244/2/6 249/2/6
f 244/5/6 245/5/6 250/5/6
f 249/2/6 244/2/6 250/2/6
f 245/2/6 246/2/6 251/2/6
f 250/5/6 245/5/6 251/5/6
f 246/5/6 247/5/6 252/5/6
f 251/2/6 246/2/6 252/2/6
f 252/5/6 247/5/6 253/5/6
f 241/2/6 242/2/6 254/2/6
f 248/5/6 249/5/6 255/5/6
f 250/2/6 251/2/6 256/2/6
f 255/5/6 249/5/6 256/5/6
f 249/2/6 250/2/6 256/2/6
f 256/2/6 251/2/6 257/2/6
f 251/5/6 252/5/6 258/5/6
f 257/2/6 251/2/6 258/2/6
f 252/2/6 253/2/6 259/2/6
f 258/5/6 252/5/6 259/5/6
f 241/2/6 254/2/6 260/2/6
f 255/2/6 256/2/6 262/2/6
f 256/5/6 257/5/6 263/5/6
f 262/2/6 256/2/6 263/2/6
f 257/2/6 258/2/6 264/2/6
f 263/5/6 257/5/6 264/5/6
f 258/2/6 259/2/6 264/2/6
f 259/2/6 253/2/6 265/2/6
f 264/2/6 259/2/6 265/2/6
f 265/2/6 253/2/6 266/2/6
f 263/2/6 264/2/6 267/2/6
f 262/2/6 263/2/6 267/2/6
f 261/2/6 262/2/6 267/2/6
f 264/2/6 265/2/6 267/2/6
f 241/2/6 260/2/6 267/2/6
f 260/2/6 261/2/6 267/2/6
f 267/2/6 265/2/6 268/2/6
f 268/2/6 265/2/6 269/2/6
f 269/2/6 265/2/6 270/2/6
f 270/2/6 265/2/6 271/2/6
f 265/5/6 266/5/6 272/5/6
f 271/2/6 265/2/6 272/2/6
f 272/5/6 266/5/6 273/5/6
f 241/2/6 267/2/6 274/2/6
f 269/2/6 270/2/6 275/2/6
f 275/2/6 270/2/6 276/2/6
f 270/5/6 271/5/6 277/5/6
f 276/2/6 270/2/6 277/2/6
f 272/2/6 273/2/6 278/2/6
f 277/5/6 271/5/6 278/5/6
f 271/2/6 272/2/6 278/2/6
f 278/2/6 273/2/6 279/2/6
f 279/2/6 273/2/6 280/2/6
f 275/5/6 276/5/6 281/5/6
f 276/2/6 277/2/6 281/2/6
f 277/2/6 278/2/6 281/2/6
f 278/2/6 279/2/6 281/2/6
f 281/2/6 279/2/6 282/2/6
f 282/2/6 279/2/6 283/2/6
f 279/5/6 280/5/6 284/5/6
f 283/2/6 279/2/6 284/2/6
f 284/5/6 280/5/6 285/5/6
f 241/2/6 274/2/6 286/2/6
f 286/2/6 274/2/6 287/2/6
f 275/5/6 281/5/6 288/5/6
f 281/5/6 282/5/6 288/5/6
f 282/2/6 283/2/6 289/2/6
f 288/5/6 282/5/6 289/5/6
f 283/5/6 284/5/6 290/5/6
f 289/2/6 283/2/6 290/2/6
f 284/2/6 285/2/6 291/2/6
f 290/5/6 284/5/6 291/5/6
f 291/2/6 285/2/6 292/2/6
f 293/2/6 294/2/6 297/2/6
f 294/5/6 295/5/6 298/5/6
f 297/2/6 294/2/6 298/2/6
f 295/2/6 296/2/6 299/2/6
f 298/5/6 295/5/6 299/5/6
f 299/2/6 296/2/6 300/2/6
f 297/5/6 298/5/6 301/5/6
f 298/2/6 299/2/6 302/2/6
f 301/5/6 298/5/6 302/5/6
f 299/5/6 300/5/6 303/5/6
f 302/2/6 299/2/6 303/2/6
f 303/5/6 300/5/6 304/5/6
f 301/2/6 302/2/6 305/2/6
f 302/2/6 303/2/6 305/2/6
f 303/2/6 304/2/6 305/2/6
f 305/2/6 304/2/6 306/2/6
f 307/2/6 308/2/6 310/2/6
f 310/2/6 308/2/6 311/2/6
f 308/5/6 309/5/6 312/5/6
f 311/2/6 308/2/6 312/2/6
f 312/5/6 309/5/6 313/5/6
f 310/5/6 311/5/6 314/5/6
f 311/2/6 312/2/6 315/2/6
f 314/5/6 311/5/6 315/5/6
f 312/2/6 313/2/6 315/2/6
f 315/2/6 313/2/6 316/2/6
f 316/2/6 313/2/6 317/2/6
f 314/2/6 315/2/6 318/2/6
f 315/2/6 316/2/6 318/2/6
f 316/5/6 317/5/6 319/5/6
f 318/2/6 316/2/6 319/2/6
f 319/5/6 317/5/6 320/5/6
