# MagicaVoxel @ Ephtracy

# group
o 

# material
mtllib HealPepeGame.mtl
usemtl palette

# normals
vn -1 0 0
vn 1 0 0
vn 0 0 1
vn 0 0 -1
vn 0 -1 0
vn 0 1 0

# texcoords
vt 0.732422 0.5
vt 0.751953 0.5
vt 0.888672 0.5
vt 0.892578 0.5

# verts
v -0.7 0.1 1.1
v -0.7 0.1 -0.7
v -0.7 0.2 1.2
v -0.7 0.2 1.1
v -0.7 0.2 0.3
v -0.7 0.2 0.0999999
v -0.7 0.2 -0.7
v -0.7 0.2 -0.8
v -0.7 0.5 0.6
v -0.7 0.5 0.3
v -0.7 0.5 0.0999999
v -0.7 0.5 -0.2
v -0.7 0.7 0.6
v -0.7 0.7 0.3
v -0.7 0.7 0.0999999
v -0.7 0.7 -0.2
v -0.7 0.8 1.2
v -0.7 0.8 0.3
v -0.7 0.8 0.0999999
v -0.7 0.8 -0.8
v -0.7 0.9 1.2
v -0.7 0.9 0.3
v -0.7 0.9 0.0999999
v -0.7 0.9 -0.8
v -0.7 1 1.2
v -0.7 1 1.1
v -0.7 1 0.3
v -0.7 1 0.0999999
v -0.7 1 -0.7
v -0.7 1 -0.8
v -0.7 1.1 1.1
v -0.7 1.1 -0.7
v -0.6 0 1.1
v -0.6 0 -0.7
v -0.6 0.1 1.2
v -0.6 0.1 1.1
v -0.6 0.1 -0.7
v -0.6 0.1 -0.8
v -0.6 0.2 1.3
v -0.6 0.2 1.2
v -0.6 0.2 1.1
v -0.6 0.2 -0.7
v -0.6 0.2 -0.8
v -0.6 0.2 -0.9
v -0.6 0.8 1.3
v -0.6 0.8 1.2
v -0.6 0.8 0.3
v -0.6 0.8 0.0999999
v -0.6 0.8 -0.8
v -0.6 0.8 -0.9
v -0.6 0.9 1.3
v -0.6 0.9 1.2
v -0.6 0.9 0.3
v -0.6 0.9 0.0999999
v -0.6 0.9 -0.8
v -0.6 0.9 -0.9
v -0.6 1 1.3
v -0.6 1 1.2
v -0.6 1 1.1
v -0.6 1 -0.7
v -0.6 1 -0.8
v -0.6 1 -0.9
v -0.6 1.1 1.2
v -0.6 1.1 1.1
v -0.6 1.1 -0.7
v -0.6 1.1 -0.8
v -0.6 1.2 1.1
v -0.6 1.2 -0.7
v -0.5 0 1.2
v -0.5 0 1.1
v -0.5 0 -0.7
v -0.5 0 -0.8
v -0.5 0.1 1.3
v -0.5 0.1 1.2
v -0.5 0.1 1.1
v -0.5 0.1 -0.7
v -0.5 0.1 -0.8
v -0.5 0.1 -0.9
v -0.5 0.2 1.3
v -0.5 0.2 1.2
v -0.5 0.2 -0.8
v -0.5 0.2 -0.9
v -0.5 1 1.3
v -0.5 1 1.2
v -0.5 1 -0.8
v -0.5 1 -0.9
v -0.5 1.1 1.3
v -0.5 1.1 1.2
v -0.5 1.1 1.1
v -0.5 1.1 -0.7
v -0.5 1.1 -0.8
v -0.5 1.1 -0.9
v -0.5 1.2 1.2
v -0.5 1.2 1.1
v -0.5 1.2 -0.7
v -0.5 1.2 -0.8
v 0.9 0.8 0.4
v 0.9 0.8 0.3
v 0.9 0.9 0.4
v 0.9 0.9 0.3
v 0.7 0 1.2
v 0.7 0 1.1
v 0.7 0 -0.7
v 0.7 0 -0.8
v 0.7 0.1 1.3
v 0.7 0.1 1.2
v 0.7 0.1 1.1
v 0.7 0.1 -0.7
v 0.7 0.1 -0.8
v 0.7 0.1 -0.9
v 0.7 0.2 1.3
v 0.7 0.2 1.2
v 0.7 0.2 -0.8
v 0.7 0.2 -0.9
v 0.7 1 1.3
v 0.7 1 1.2
v 0.7 1 -0.8
v 0.7 1 -0.9
v 0.7 1.1 1.3
v 0.7 1.1 1.2
v 0.7 1.1 1.1
v 0.7 1.1 -0.7
v 0.7 1.1 -0.8
v 0.7 1.1 -0.9
v 0.7 1.2 1.2
v 0.7 1.2 1.1
v 0.7 1.2 -0.7
v 0.7 1.2 -0.8
v 0.8 0 1.1
v 0.8 0 -0.7
v 0.8 0.1 1.2
v 0.8 0.1 1.1
v 0.8 0.1 -0.7
v 0.8 0.1 -0.8
v 0.8 0.2 1.3
v 0.8 0.2 1.2
v 0.8 0.2 1.1
v 0.8 0.2 -0.7
v 0.8 0.2 -0.8
v 0.8 0.2 -0.9
v 0.8 0.8 1.3
v 0.8 0.8 1.2
v 0.8 0.8 1.1
v 0.8 0.8 0.4
v 0.8 0.8 0.0999999
v 0.8 0.8 -0.7
v 0.8 0.8 -0.8
v 0.8 0.8 -0.9
v 0.8 0.9 1.3
v 0.8 0.9 1.2
v 0.8 0.9 1.1
v 0.8 0.9 0.4
v 0.8 0.9 0.0999999
v 0.8 0.9 -0.7
v 0.8 0.9 -0.8
v 0.8 0.9 -0.9
v 0.8 1 1.3
v 0.8 1 1.2
v 0.8 1 1.1
v 0.8 1 -0.7
v 0.8 1 -0.8
v 0.8 1 -0.9
v 0.8 1.1 1.2
v 0.8 1.1 1.1
v 0.8 1.1 -0.7
v 0.8 1.1 -0.8
v 0.8 1.2 1.1
v 0.8 1.2 -0.7
v 0.9 0.1 1.1
v 0.9 0.1 -0.7
v 0.9 0.2 1.2
v 0.9 0.2 1.1
v 0.9 0.2 -0.7
v 0.9 0.2 -0.8
v 0.9 0.7 1
v 0.9 0.7 0.4
v 0.9 0.7 0
v 0.9 0.7 -0.6
v 0.9 0.8 1.2
v 0.9 0.8 1.1
v 0.9 0.8 1
v 0.9 0.8 0.4
v 0.9 0.8 0.3
v 0.9 0.8 0.0999999
v 0.9 0.8 0
v 0.9 0.8 -0.6
v 0.9 0.8 -0.7
v 0.9 0.8 -0.8
v 0.9 0.9 1.2
v 0.9 0.9 1.1
v 0.9 0.9 1
v 0.9 0.9 0.4
v 0.9 0.9 0.3
v 0.9 0.9 0.0999999
v 0.9 0.9 0
v 0.9 0.9 -0.6
v 0.9 0.9 -0.7
v 0.9 0.9 -0.8
v 0.9 1 1.2
v 0.9 1 1.1
v 0.9 1 1
v 0.9 1 0.4
v 0.9 1 0
v 0.9 1 -0.6
v 0.9 1 -0.7
v 0.9 1 -0.8
v 0.9 1.1 1.1
v 0.9 1.1 -0.7
v 1 0.7 1
v 1 0.7 0.4
v 1 0.7 0
v 1 0.7 -0.6
v 1 0.8 1.1
v 1 0.8 1
v 1 0.8 0.4
v 1 0.8 0.3
v 1 0.8 0.0999999
v 1 0.8 0
v 1 0.8 -0.6
v 1 0.8 -0.7
v 1 0.9 1.1
v 1 0.9 1
v 1 0.9 0.4
v 1 0.9 0.3
v 1 0.9 0.0999999
v 1 0.9 0
v 1 0.9 -0.6
v 1 0.9 -0.7
v 1 1 1
v 1 1 0.4
v 1 1 0
v 1 1 -0.6
v -0.6 0.2 1.3
v -0.6 0.8 1.3
v -0.6 0.9 1.3
v -0.6 1 1.3
v -0.5 0.1 1.3
v -0.5 0.2 1.3
v -0.5 1 1.3
v -0.5 1.1 1.3
v 0.7 0.1 1.3
v 0.7 0.2 1.3
v 0.7 1 1.3
v 0.7 1.1 1.3
v 0.8 0.2 1.3
v 0.8 0.8 1.3
v 0.8 0.9 1.3
v 0.8 1 1.3
v -0.7 0.2 1.2
v -0.7 0.8 1.2
v -0.7 0.9 1.2
v -0.7 1 1.2
v -0.6 0.1 1.2
v -0.6 0.2 1.2
v -0.6 0.8 1.2
v -0.6 0.9 1.2
v -0.6 1 1.2
v -0.6 1.1 1.2
v -0.5 0 1.2
v -0.5 0.1 1.2
v -0.5 0.2 1.2
v -0.5 1 1.2
v -0.5 1.1 1.2
v -0.5 1.2 1.2
v 0.7 0 1.2
v 0.7 0.1 1.2
v 0.7 0.2 1.2
v 0.7 1 1.2
v 0.7 1.1 1.2
v 0.7 1.2 1.2
v 0.8 0.1 1.2
v 0.8 0.2 1.2
v 0.8 0.8 1.2
v 0.8 0.9 1.2
v 0.8 1 1.2
v 0.8 1.1 1.2
v 0.9 0.2 1.2
v 0.9 0.8 1.2
v 0.9 0.9 1.2
v 0.9 1 1.2
v -0.7 0.1 1.1
v -0.7 0.2 1.1
v -0.7 1 1.1
v -0.7 1.1 1.1
v -0.6 0 1.1
v -0.6 0.1 1.1
v -0.6 0.2 1.1
v -0.6 1 1.1
v -0.6 1.1 1.1
v -0.6 1.2 1.1
v -0.5 0 1.1
v -0.5 0.1 1.1
v -0.5 1.1 1.1
v -0.5 1.2 1.1
v 0.7 0 1.1
v 0.7 0.1 1.1
v 0.7 1.1 1.1
v 0.7 1.2 1.1
v 0.8 0 1.1
v 0.8 0.1 1.1
v 0.8 0.2 1.1
v 0.8 0.8 1.1
v 0.8 0.9 1.1
v 0.8 1 1.1
v 0.8 1.1 1.1
v 0.8 1.2 1.1
v 0.9 0.1 1.1
v 0.9 0.2 1.1
v 0.9 0.8 1.1
v 0.9 0.9 1.1
v 0.9 1 1.1
v 0.9 1.1 1.1
v 1 0.8 1.1
v 1 0.9 1.1
v 0.9 0.7 1
v 0.9 0.8 1
v 0.9 0.9 1
v 0.9 1 1
v 1 0.7 1
v 1 0.8 1
v 1 0.9 1
v 1 1 1
v 0.8 0.8 0.0999999
v 0.8 0.9 0.0999999
v 0.9 0.8 0.0999999
v 0.9 0.9 0.0999999
v 1 0.8 0.0999999
v 1 0.9 0.0999999
v 0.9 0.7 0
v 0.9 0.8 0
v 0.9 0.9 0
v 0.9 1 0
v 1 0.7 0
v 1 0.8 0
v 1 0.9 0
v 1 1 0
v 0.8 0.8 0.4
v 0.8 0.9 0.4
v 0.9 0.7 0.4
v 0.9 0.8 0.4
v 0.9 0.9 0.4
v 0.9 1 0.4
v 1 0.7 0.4
v 1 0.8 0.4
v 1 0.9 0.4
v 1 1 0.4
v 0.9 0.8 0.3
v 0.9 0.9 0.3
v 1 0.8 0.3
v 1 0.9 0.3
v 0.9 0.7 -0.6
v 0.9 0.8 -0.6
v 0.9 0.9 -0.6
v 0.9 1 -0.6
v 1 0.7 -0.6
v 1 0.8 -0.6
v 1 0.9 -0.6
v 1 1 -0.6
v -0.7 0.1 -0.7
v -0.7 0.2 -0.7
v -0.7 1 -0.7
v -0.7 1.1 -0.7
v -0.6 0 -0.7
v -0.6 0.1 -0.7
v -0.6 0.2 -0.7
v -0.6 1 -0.7
v -0.6 1.1 -0.7
v -0.6 1.2 -0.7
v -0.5 0 -0.7
v -0.5 0.1 -0.7
v -0.5 1.1 -0.7
v -0.5 1.2 -0.7
v 0.7 0 -0.7
v 0.7 0.1 -0.7
v 0.7 1.1 -0.7
v 0.7 1.2 -0.7
v 0.8 0 -0.7
v 0.8 0.1 -0.7
v 0.8 0.2 -0.7
v 0.8 0.8 -0.7
v 0.8 0.9 -0.7
v 0.8 1 -0.7
v 0.8 1.1 -0.7
v 0.8 1.2 -0.7
v 0.9 0.1 -0.7
v 0.9 0.2 -0.7
v 0.9 0.8 -0.7
v 0.9 0.9 -0.7
v 0.9 1 -0.7
v 0.9 1.1 -0.7
v 1 0.8 -0.7
v 1 0.9 -0.7
v -0.7 0.2 -0.8
v -0.7 0.8 -0.8
v -0.7 0.9 -0.8
v -0.7 1 -0.8
v -0.6 0.1 -0.8
v -0.6 0.2 -0.8
v -0.6 0.8 -0.8
v -0.6 0.9 -0.8
v -0.6 1 -0.8
v -0.6 1.1 -0.8
v -0.5 0 -0.8
v -0.5 0.1 -0.8
v -0.5 0.2 -0.8
v -0.5 1 -0.8
v -0.5 1.1 -0.8
v -0.5 1.2 -0.8
v 0.7 0 -0.8
v 0.7 0.1 -0.8
v 0.7 0.2 -0.8
v 0.7 1 -0.8
v 0.7 1.1 -0.8
v 0.7 1.2 -0.8
v 0.8 0.1 -0.8
v 0.8 0.2 -0.8
v 0.8 0.8 -0.8
v 0.8 0.9 -0.8
v 0.8 1 -0.8
v 0.8 1.1 -0.8
v 0.9 0.2 -0.8
v 0.9 0.8 -0.8
v 0.9 0.9 -0.8
v 0.9 1 -0.8
v -0.6 0.2 -0.9
v -0.6 0.8 -0.9
v -0.6 0.9 -0.9
v -0.6 1 -0.9
v -0.5 0.1 -0.9
v -0.5 0.2 -0.9
v -0.5 1 -0.9
v -0.5 1.1 -0.9
v 0.7 0.1 -0.9
v 0.7 0.2 -0.9
v 0.7 1 -0.9
v 0.7 1.1 -0.9
v 0.8 0.2 -0.9
v 0.8 0.8 -0.9
v 0.8 0.9 -0.9
v 0.8 1 -0.9
v -0.5 0 1.2
v 0.7 0 1.2
v -0.6 0 1.1
v -0.5 0 1.1
v 0.7 0 1.1
v 0.8 0 1.1
v -0.6 0 -0.7
v -0.5 0 -0.7
v 0.7 0 -0.7
v 0.8 0 -0.7
v -0.5 0 -0.8
v 0.7 0 -0.8
v -0.5 0.1 1.3
v 0.7 0.1 1.3
v -0.6 0.1 1.2
v -0.5 0.1 1.2
v 0.7 0.1 1.2
v 0.8 0.1 1.2
v -0.7 0.1 1.1
v -0.6 0.1 1.1
v -0.5 0.1 1.1
v 0.7 0.1 1.1
v 0.8 0.1 1.1
v 0.9 0.1 1.1
v -0.7 0.1 -0.7
v -0.6 0.1 -0.7
v -0.5 0.1 -0.7
v 0.7 0.1 -0.7
v 0.8 0.1 -0.7
v 0.9 0.1 -0.7
v -0.6 0.1 -0.8
v -0.5 0.1 -0.8
v 0.7 0.1 -0.8
v 0.8 0.1 -0.8
v -0.5 0.1 -0.9
v 0.7 0.1 -0.9
v -0.6 0.2 1.3
v -0.5 0.2 1.3
v 0.7 0.2 1.3
v 0.8 0.2 1.3
v -0.7 0.2 1.2
v -0.6 0.2 1.2
v -0.5 0.2 1.2
v 0.7 0.2 1.2
v 0.8 0.2 1.2
v 0.9 0.2 1.2
v -0.7 0.2 1.1
v -0.6 0.2 1.1
v 0.8 0.2 1.1
v 0.9 0.2 1.1
v -0.7 0.2 -0.7
v -0.6 0.2 -0.7
v 0.8 0.2 -0.7
v 0.9 0.2 -0.7
v -0.7 0.2 -0.8
v -0.6 0.2 -0.8
v -0.5 0.2 -0.8
v 0.7 0.2 -0.8
v 0.8 0.2 -0.8
v 0.9 0.2 -0.8
v -0.6 0.2 -0.9
v -0.5 0.2 -0.9
v 0.7 0.2 -0.9
v 0.8 0.2 -0.9
v 0.9 0.7 1
v 1 0.7 1
v 0.9 0.7 0.4
v 1 0.7 0.4
v 0.9 0.7 0
v 1 0.7 0
v 0.9 0.7 -0.6
v 1 0.7 -0.6
v 0.9 0.8 1.1
v 1 0.8 1.1
v 0.9 0.8 1
v 1 0.8 1
v 0.9 0.8 0.4
v 1 0.8 0.4
v 0.9 0.8 0.3
v 1 0.8 0.3
v 0.9 0.8 0.0999999
v 1 0.8 0.0999999
v 0.9 0.8 0
v 1 0.8 0
v 0.9 0.8 -0.6
v 1 0.8 -0.6
v 0.9 0.8 -0.7
v 1 0.8 -0.7
v -0.6 0.9 1.3
v 0.8 0.9 1.3
v -0.7 0.9 1.2
v -0.6 0.9 1.2
v 0.8 0.9 1.2
v 0.9 0.9 1.2
v 0.8 0.9 1.1
v 0.9 0.9 1.1
v 0.8 0.9 0.4
v 0.9 0.9 0.4
v -0.7 0.9 0.3
v -0.6 0.9 0.3
v 0.9 0.9 0.3
v -0.7 0.9 0.0999999
v -0.6 0.9 0.0999999
v 0.8 0.9 0.0999999
v 0.9 0.9 0.0999999
v 0.8 0.9 -0.7
v 0.9 0.9 -0.7
v -0.7 0.9 -0.8
v -0.6 0.9 -0.8
v 0.8 0.9 -0.8
v 0.9 0.9 -0.8
v -0.6 0.9 -0.9
v 0.8 0.9 -0.9
v -0.6 0.8 1.3
v 0.8 0.8 1.3
v -0.7 0.8 1.2
v -0.6 0.8 1.2
v 0.8 0.8 1.2
v 0.9 0.8 1.2
v 0.8 0.8 1.1
v 0.9 0.8 1.1
v 0.8 0.8 0.4
v 0.9 0.8 0.4
v -0.7 0.8 0.3
v -0.6 0.8 0.3
v 0.9 0.8 0.3
v -0.7 0.8 0.0999999
v -0.6 0.8 0.0999999
v 0.8 0.8 0.0999999
v 0.9 0.8 0.0999999
v 0.8 0.8 -0.7
v 0.9 0.8 -0.7
v -0.7 0.8 -0.8
v -0.6 0.8 -0.8
v 0.8 0.8 -0.8
v 0.9 0.8 -0.8
v -0.6 0.8 -0.9
v 0.8 0.8 -0.9
v 0.9 0.9 1.1
v 1 0.9 1.1
v 0.9 0.9 1
v 1 0.9 1
v 0.9 0.9 0.4
v 1 0.9 0.4
v 0.9 0.9 0.3
v 1 0.9 0.3
v 0.9 0.9 0.0999999
v 1 0.9 0.0999999
v 0.9 0.9 0
v 1 0.9 0
v 0.9 0.9 -0.6
v 1 0.9 -0.6
v 0.9 0.9 -0.7
v 1 0.9 -0.7
v -0.6 1 1.3
v -0.5 1 1.3
v 0.7 1 1.3
v 0.8 1 1.3
v -0.7 1 1.2
v -0.6 1 1.2
v -0.5 1 1.2
v 0.7 1 1.2
v 0.8 1 1.2
v 0.9 1 1.2
v -0.7 1 1.1
v -0.6 1 1.1
v 0.8 1 1.1
v 0.9 1 1.1
v 0.9 1 1
v 1 1 1
v 0.9 1 0.4
v 1 1 0.4
v 0.9 1 0
v 1 1 0
v 0.9 1 -0.6
v 1 1 -0.6
v -0.7 1 -0.7
v -0.6 1 -0.7
v 0.8 1 -0.7
v 0.9 1 -0.7
v -0.7 1 -0.8
v -0.6 1 -0.8
v -0.5 1 -0.8
v 0.7 1 -0.8
v 0.8 1 -0.8
v 0.9 1 -0.8
v -0.6 1 -0.9
v -0.5 1 -0.9
v 0.7 1 -0.9
v 0.8 1 -0.9
v -0.5 1.1 1.3
v 0.7 1.1 1.3
v -0.6 1.1 1.2
v -0.5 1.1 1.2
v 0.7 1.1 1.2
v 0.8 1.1 1.2
v -0.7 1.1 1.1
v -0.6 1.1 1.1
v -0.5 1.1 1.1
v 0.7 1.1 1.1
v 0.8 1.1 1.1
v 0.9 1.1 1.1
v -0.7 1.1 -0.7
v -0.6 1.1 -0.7
v -0.5 1.1 -0.7
v 0.7 1.1 -0.7
v 0.8 1.1 -0.7
v 0.9 1.1 -0.7
v -0.6 1.1 -0.8
v -0.5 1.1 -0.8
v 0.7 1.1 -0.8
v 0.8 1.1 -0.8
v -0.5 1.1 -0.9
v 0.7 1.1 -0.9
v -0.5 1.2 1.2
v 0.7 1.2 1.2
v -0.6 1.2 1.1
v -0.5 1.2 1.1
v 0.7 1.2 1.1
v 0.8 1.2 1.1
v 5.96046e-08 1.2 0.7
v 0.2 1.2 0.7
v -0.4 1.2 0.3
v 5.96046e-08 1.2 0.3
v 0.2 1.2 0.3
v 0.6 1.2 0.3
v -0.4 1.2 0.0999999
v 5.96046e-08 1.2 0.0999999
v 0.2 1.2 0.0999999
v 0.6 1.2 0.0999999
v 5.96046e-08 1.2 -0.3
v 0.2 1.2 -0.3
v -0.6 1.2 -0.7
v -0.5 1.2 -0.7
v 0.7 1.2 -0.7
v 0.8 1.2 -0.7
v -0.5 1.2 -0.8
v 0.7 1.2 -0.8

# faces
f 4/3/1 2/3/1 1/3/1
f 5/3/1 2/3/1 4/3/1
f 6/3/1 2/3/1 5/3/1
f 7/3/1 2/3/1 6/3/1
f 9/3/1 4/3/1 3/3/1
f 9/3/1 5/3/1 4/3/1
f 10/1/1 6/1/1 5/1/1
f 10/3/1 5/3/1 9/3/1
f 11/3/1 8/3/1 7/3/1
f 11/1/1 6/1/1 10/1/1
f 11/3/1 7/3/1 6/3/1
f 12/3/1 8/3/1 11/3/1
f 13/1/1 10/1/1 9/1/1
f 13/3/1 9/3/1 3/3/1
f 13/1/1 12/1/1 11/1/1
f 13/1/1 11/1/1 10/1/1
f 14/1/1 12/1/1 13/1/1
f 15/1/1 12/1/1 14/1/1
f 16/3/1 8/3/1 12/3/1
f 16/1/1 12/1/1 15/1/1
f 17/3/1 13/3/1 3/3/1
f 17/3/1 14/3/1 13/3/1
f 18/1/1 15/1/1 14/1/1
f 18/3/1 14/3/1 17/3/1
f 19/3/1 16/3/1 15/3/1
f 19/1/1 15/1/1 18/1/1
f 20/3/1 8/3/1 16/3/1
f 20/3/1 16/3/1 19/3/1
f 25/3/1 22/3/1 21/3/1
f 26/3/1 22/3/1 25/3/1
f 27/1/1 23/1/1 22/1/1
f 27/3/1 22/3/1 26/3/1
f 28/3/1 24/3/1 23/3/1
f 28/1/1 23/1/1 27/1/1
f 29/3/1 24/3/1 28/3/1
f 30/3/1 24/3/1 29/3/1
f 31/3/1 27/3/1 26/3/1
f 31/3/1 29/3/1 28/3/1
f 31/3/1 28/3/1 27/3/1
f 32/3/1 29/3/1 31/3/1
f 36/3/1 34/3/1 33/3/1
f 37/3/1 34/3/1 36/3/1
f 40/3/1 36/3/1 35/3/1
f 41/3/1 36/3/1 40/3/1
f 42/3/1 38/3/1 37/3/1
f 43/3/1 38/3/1 42/3/1
f 45/3/1 40/3/1 39/3/1
f 46/3/1 40/3/1 45/3/1
f 49/3/1 44/3/1 43/3/1
f 50/3/1 44/3/1 49/3/1
f 52/2/1 48/2/1 47/2/1
f 52/2/1 49/2/1 48/2/1
f 52/2/1 47/2/1 46/2/1
f 53/2/1 49/2/1 52/2/1
f 54/2/1 49/2/1 53/2/1
f 55/2/1 49/2/1 54/2/1
f 57/3/1 52/3/1 51/3/1
f 58/3/1 52/3/1 57/3/1
f 61/3/1 56/3/1 55/3/1
f 62/3/1 56/3/1 61/3/1
f 63/3/1 59/3/1 58/3/1
f 64/3/1 59/3/1 63/3/1
f 65/3/1 61/3/1 60/3/1
f 66/3/1 61/3/1 65/3/1
f 67/3/1 65/3/1 64/3/1
f 68/3/1 65/3/1 67/3/1
f 74/3/1 70/3/1 69/3/1
f 75/3/1 70/3/1 74/3/1
f 76/3/1 72/3/1 71/3/1
f 77/3/1 72/3/1 76/3/1
f 79/3/1 74/3/1 73/3/1
f 80/3/1 74/3/1 79/3/1
f 81/3/1 78/3/1 77/3/1
f 82/3/1 78/3/1 81/3/1
f 87/3/1 84/3/1 83/3/1
f 88/3/1 84/3/1 87/3/1
f 91/3/1 86/3/1 85/3/1
f 92/3/1 86/3/1 91/3/1
f 93/3/1 89/3/1 88/3/1
f 94/3/1 89/3/1 93/3/1
f 95/3/1 91/3/1 90/3/1
f 96/3/1 91/3/1 95/3/1
f 99/4/1 98/4/1 97/4/1
f 100/4/1 98/4/1 99/4/1
f 101/3/2 102/3/2 106/3/2
f 106/3/2 102/3/2 107/3/2
f 103/3/2 104/3/2 108/3/2
f 108/3/2 104/3/2 109/3/2
f 105/3/2 106/3/2 111/3/2
f 111/3/2 106/3/2 112/3/2
f 109/3/2 110/3/2 113/3/2
f 113/3/2 110/3/2 114/3/2
f 115/3/2 116/3/2 119/3/2
f 119/3/2 116/3/2 120/3/2
f 117/3/2 118/3/2 123/3/2
f 123/3/2 118/3/2 124/3/2
f 120/3/2 121/3/2 125/3/2
f 125/3/2 121/3/2 126/3/2
f 122/3/2 123/3/2 127/3/2
f 127/3/2 123/3/2 128/3/2
f 129/3/2 130/3/2 132/3/2
f 132/3/2 130/3/2 133/3/2
f 131/3/2 132/3/2 136/3/2
f 136/3/2 132/3/2 137/3/2
f 133/3/2 134/3/2 138/3/2
f 138/3/2 134/3/2 139/3/2
f 135/3/2 136/3/2 141/3/2
f 141/3/2 136/3/2 142/3/2
f 139/3/2 140/3/2 147/3/2
f 147/3/2 140/3/2 148/3/2
f 142/2/2 143/2/2 150/2/2
f 150/2/2 143/2/2 151/2/2
f 144/2/2 145/2/2 152/2/2
f 152/2/2 145/2/2 153/2/2
f 146/2/2 147/2/2 154/2/2
f 154/2/2 147/2/2 155/2/2
f 149/3/2 150/3/2 157/3/2
f 157/3/2 150/3/2 158/3/2
f 155/3/2 156/3/2 161/3/2
f 161/3/2 156/3/2 162/3/2
f 158/3/2 159/3/2 163/3/2
f 163/3/2 159/3/2 164/3/2
f 160/3/2 161/3/2 165/3/2
f 165/3/2 161/3/2 166/3/2
f 164/3/2 165/3/2 167/3/2
f 167/3/2 165/3/2 168/3/2
f 169/3/2 170/3/2 172/3/2
f 172/3/2 170/3/2 173/3/2
f 171/3/2 172/3/2 175/3/2
f 173/3/2 174/3/2 175/3/2
f 172/3/2 173/3/2 175/3/2
f 175/3/2 174/3/2 176/3/2
f 176/3/2 174/3/2 177/3/2
f 177/3/2 174/3/2 178/3/2
f 171/3/2 175/3/2 179/3/2
f 179/3/2 175/3/2 180/3/2
f 180/3/2 175/3/2 181/3/2
f 176/3/2 177/3/2 182/3/2
f 182/3/2 177/3/2 183/3/2
f 183/3/2 177/3/2 184/3/2
f 184/3/2 177/3/2 185/3/2
f 178/3/2 174/3/2 186/3/2
f 186/3/2 174/3/2 187/3/2
f 187/3/2 174/3/2 188/3/2
f 189/3/2 190/3/2 199/3/2
f 190/3/2 191/3/2 199/3/2
f 199/3/2 191/3/2 200/3/2
f 200/3/2 191/3/2 201/3/2
f 192/3/2 193/3/2 202/3/2
f 193/3/2 194/3/2 202/3/2
f 194/3/2 195/3/2 202/3/2
f 202/3/2 195/3/2 203/3/2
f 197/3/2 198/3/2 204/3/2
f 196/3/2 197/3/2 204/3/2
f 204/3/2 198/3/2 205/3/2
f 205/3/2 198/3/2 206/3/2
f 202/3/2 203/3/2 207/3/2
f 201/3/2 202/3/2 207/3/2
f 204/3/2 205/3/2 207/3/2
f 203/3/2 204/3/2 207/3/2
f 200/3/2 201/3/2 207/3/2
f 207/3/2 205/3/2 208/3/2
f 209/4/2 210/4/2 214/4/2
f 214/4/2 210/4/2 215/4/2
f 211/4/2 212/4/2 218/4/2
f 218/4/2 212/4/2 219/4/2
f 215/4/2 216/4/2 221/4/2
f 213/4/2 214/4/2 221/4/2
f 214/4/2 215/4/2 221/4/2
f 221/4/2 216/4/2 222/4/2
f 222/4/2 216/4/2 223/4/2
f 223/4/2 216/4/2 224/4/2
f 219/4/2 220/4/2 225/4/2
f 218/4/2 219/4/2 225/4/2
f 217/4/2 218/4/2 225/4/2
f 225/4/2 220/4/2 226/4/2
f 226/4/2 220/4/2 227/4/2
f 227/4/2 220/4/2 228/4/2
f 222/4/2 223/4/2 229/4/2
f 229/4/2 223/4/2 230/4/2
f 226/4/2 227/4/2 231/4/2
f 231/4/2 227/4/2 232/4/2
f 238/3/3 234/3/3 233/3/3
f 239/3/3 236/3/3 235/3/3
f 241/3/3 238/3/3 237/3/3
f 242/3/3 234/3/3 238/3/3
f 242/3/3 238/3/3 241/3/3
f 243/3/3 240/3/3 239/3/3
f 243/3/3 239/3/3 235/3/3
f 244/3/3 240/3/3 243/3/3
f 245/3/3 234/3/3 242/3/3
f 246/3/3 234/3/3 245/3/3
f 247/3/3 243/3/3 235/3/3
f 248/3/3 243/3/3 247/3/3
f 254/3/3 250/3/3 249/3/3
f 255/3/3 250/3/3 254/3/3
f 256/3/3 252/3/3 251/3/3
f 257/3/3 252/3/3 256/3/3
f 260/3/3 254/3/3 253/3/3
f 261/3/3 254/3/3 260/3/3
f 262/3/3 258/3/3 257/3/3
f 263/3/3 258/3/3 262/3/3
f 265/3/3 260/3/3 259/3/3
f 266/3/3 260/3/3 265/3/3
f 269/3/3 264/3/3 263/3/3
f 270/3/3 264/3/3 269/3/3
f 271/3/3 267/3/3 266/3/3
f 272/3/3 267/3/3 271/3/3
f 273/2/3 256/2/3 255/2/3
f 274/2/3 256/2/3 273/2/3
f 275/3/3 269/3/3 268/3/3
f 276/3/3 269/3/3 275/3/3
f 277/3/3 273/3/3 272/3/3
f 278/3/3 273/3/3 277/3/3
f 279/3/3 275/3/3 274/3/3
f 280/3/3 275/3/3 279/3/3
f 286/3/3 282/3/3 281/3/3
f 287/3/3 282/3/3 286/3/3
f 288/3/3 284/3/3 283/3/3
f 289/3/3 284/3/3 288/3/3
f 291/3/3 286/3/3 285/3/3
f 292/3/3 286/3/3 291/3/3
f 293/3/3 290/3/3 289/3/3
f 294/3/3 290/3/3 293/3/3
f 299/3/3 296/3/3 295/3/3
f 300/3/3 296/3/3 299/3/3
f 305/3/3 298/3/3 297/3/3
f 306/3/3 298/3/3 305/3/3
f 307/3/3 301/3/3 300/3/3
f 308/3/3 301/3/3 307/3/3
f 309/4/3 303/4/3 302/4/3
f 310/4/3 303/4/3 309/4/3
f 311/3/3 305/3/3 304/3/3
f 312/3/3 305/3/3 311/3/3
f 313/4/3 310/4/3 309/4/3
f 314/4/3 310/4/3 313/4/3
f 319/4/3 316/4/3 315/4/3
f 320/4/3 316/4/3 319/4/3
f 321/4/3 318/4/3 317/4/3
f 322/4/3 318/4/3 321/4/3
f 325/4/3 324/4/3 323/4/3
f 326/4/3 324/4/3 325/4/3
f 327/4/3 326/4/3 325/4/3
f 328/4/3 326/4/3 327/4/3
f 333/4/3 330/4/3 329/4/3
f 334/4/3 330/4/3 333/4/3
f 335/4/3 332/4/3 331/4/3
f 336/4/3 332/4/3 335/4/3
f 337/4/4 338/4/4 340/4/4
f 340/4/4 338/4/4 341/4/4
f 339/4/4 340/4/4 343/4/4
f 343/4/4 340/4/4 344/4/4
f 341/4/4 342/4/4 345/4/4
f 345/4/4 342/4/4 346/4/4
f 347/4/4 348/4/4 349/4/4
f 349/4/4 348/4/4 350/4/4
f 351/4/4 352/4/4 355/4/4
f 355/4/4 352/4/4 356/4/4
f 353/4/4 354/4/4 357/4/4
f 357/4/4 354/4/4 358/4/4
f 359/3/4 360/3/4 364/3/4
f 364/3/4 360/3/4 365/3/4
f 361/3/4 362/3/4 366/3/4
f 366/3/4 362/3/4 367/3/4
f 363/3/4 364/3/4 369/3/4
f 369/3/4 364/3/4 370/3/4
f 367/3/4 368/3/4 371/3/4
f 371/3/4 368/3/4 372/3/4
f 373/3/4 374/3/4 377/3/4
f 377/3/4 374/3/4 378/3/4
f 375/3/4 376/3/4 383/3/4
f 383/3/4 376/3/4 384/3/4
f 378/3/4 379/3/4 385/3/4
f 385/3/4 379/3/4 386/3/4
f 380/4/4 381/4/4 387/4/4
f 387/4/4 381/4/4 388/4/4
f 382/3/4 383/3/4 389/3/4
f 389/3/4 383/3/4 390/3/4
f 387/4/4 388/4/4 391/4/4
f 391/4/4 388/4/4 392/4/4
f 393/3/4 394/3/4 398/3/4
f 398/3/4 394/3/4 399/3/4
f 395/3/4 396/3/4 400/3/4
f 400/3/4 396/3/4 401/3/4
f 397/3/4 398/3/4 404/3/4
f 404/3/4 398/3/4 405/3/4
f 401/3/4 402/3/4 406/3/4
f 406/3/4 402/3/4 407/3/4
f 403/3/4 404/3/4 409/3/4
f 409/3/4 404/3/4 410/3/4
f 407/3/4 408/3/4 413/3/4
f 413/3/4 408/3/4 414/3/4
f 410/3/4 411/3/4 415/3/4
f 415/3/4 411/3/4 416/3/4
f 399/2/4 400/2/4 417/2/4
f 417/2/4 400/2/4 418/2/4
f 412/3/4 413/3/4 419/3/4
f 419/3/4 413/3/4 420/3/4
f 416/3/4 417/3/4 421/3/4
f 421/3/4 417/3/4 422/3/4
f 418/3/4 419/3/4 423/3/4
f 423/3/4 419/3/4 424/3/4
f 425/3/4 426/3/4 430/3/4
f 427/3/4 428/3/4 431/3/4
f 429/3/4 430/3/4 433/3/4
f 430/3/4 426/3/4 434/3/4
f 433/3/4 430/3/4 434/3/4
f 431/3/4 432/3/4 435/3/4
f 427/3/4 431/3/4 435/3/4
f 435/3/4 432/3/4 436/3/4
f 434/3/4 426/3/4 437/3/4
f 437/3/4 426/3/4 438/3/4
f 427/3/4 435/3/4 439/3/4
f 439/3/4 435/3/4 440/3/4
f 444/3/5 442/3/5 441/3/5
f 445/3/5 442/3/5 444/3/5
f 447/3/5 444/3/5 443/3/5
f 447/3/5 446/3/5 445/3/5
f 447/3/5 445/3/5 444/3/5
f 448/3/5 446/3/5 447/3/5
f 449/3/5 446/3/5 448/3/5
f 450/3/5 446/3/5 449/3/5
f 451/3/5 449/3/5 448/3/5
f 452/3/5 449/3/5 451/3/5
f 456/3/5 454/3/5 453/3/5
f 457/3/5 454/3/5 456/3/5
f 460/3/5 456/3/5 455/3/5
f 461/3/5 456/3/5 460/3/5
f 462/3/5 458/3/5 457/3/5
f 463/3/5 458/3/5 462/3/5
f 465/3/5 460/3/5 459/3/5
f 466/3/5 460/3/5 465/3/5
f 469/3/5 464/3/5 463/3/5
f 470/3/5 464/3/5 469/3/5
f 471/3/5 467/3/5 466/3/5
f 472/3/5 467/3/5 471/3/5
f 473/3/5 469/3/5 468/3/5
f 474/3/5 469/3/5 473/3/5
f 475/3/5 473/3/5 472/3/5
f 476/3/5 473/3/5 475/3/5
f 482/3/5 478/3/5 477/3/5
f 483/3/5 478/3/5 482/3/5
f 484/3/5 480/3/5 479/3/5
f 485/3/5 480/3/5 484/3/5
f 487/3/5 482/3/5 481/3/5
f 488/3/5 482/3/5 487/3/5
f 489/3/5 486/3/5 485/3/5
f 490/3/5 486/3/5 489/3/5
f 495/3/5 492/3/5 491/3/5
f 496/3/5 492/3/5 495/3/5
f 499/3/5 494/3/5 493/3/5
f 500/3/5 494/3/5 499/3/5
f 501/3/5 497/3/5 496/3/5
f 502/3/5 497/3/5 501/3/5
f 503/3/5 499/3/5 498/3/5
f 504/3/5 499/3/5 503/3/5
f 507/4/5 506/4/5 505/4/5
f 508/4/5 506/4/5 507/4/5
f 511/4/5 510/4/5 509/4/5
f 512/4/5 510/4/5 511/4/5
f 515/4/5 514/4/5 513/4/5
f 516/4/5 514/4/5 515/4/5
f 519/4/5 518/4/5 517/4/5
f 520/4/5 518/4/5 519/4/5
f 523/4/5 522/4/5 521/4/5
f 524/4/5 522/4/5 523/4/5
f 527/4/5 526/4/5 525/4/5
f 528/4/5 526/4/5 527/4/5
f 532/3/5 530/3/5 529/3/5
f 533/3/5 530/3/5 532/3/5
f 535/3/5 534/3/5 533/3/5
f 536/3/5 534/3/5 535/3/5
f 539/3/5 532/3/5 531/3/5
f 540/3/5 532/3/5 539/3/5
f 541/3/5 538/3/5 537/3/5
f 542/1/5 540/1/5 539/1/5
f 543/1/5 540/1/5 542/1/5
f 544/3/5 541/3/5 537/3/5
f 545/3/5 541/3/5 544/3/5
f 548/3/5 543/3/5 542/3/5
f 549/3/5 543/3/5 548/3/5
f 550/3/5 547/3/5 546/3/5
f 551/3/5 547/3/5 550/3/5
f 552/3/5 550/3/5 549/3/5
f 553/3/5 550/3/5 552/3/5
f 554/3/6 555/3/6 557/3/6
f 557/3/6 555/3/6 558/3/6
f 558/3/6 559/3/6 560/3/6
f 560/3/6 559/3/6 561/3/6
f 556/3/6 557/3/6 564/3/6
f 564/3/6 557/3/6 565/3/6
f 562/3/6 563/3/6 566/3/6
f 564/1/6 565/1/6 567/1/6
f 567/1/6 565/1/6 568/1/6
f 562/3/6 566/3/6 569/3/6
f 569/3/6 566/3/6 570/3/6
f 567/3/6 568/3/6 573/3/6
f 573/3/6 568/3/6 574/3/6
f 571/3/6 572/3/6 575/3/6
f 575/3/6 572/3/6 576/3/6
f 574/3/6 575/3/6 577/3/6
f 577/3/6 575/3/6 578/3/6
f 579/4/6 580/4/6 581/4/6
f 581/4/6 580/4/6 582/4/6
f 583/4/6 584/4/6 585/4/6
f 585/4/6 584/4/6 586/4/6
f 587/4/6 588/4/6 589/4/6
f 589/4/6 588/4/6 590/4/6
f 591/4/6 592/4/6 593/4/6
f 593/4/6 592/4/6 594/4/6
f 595/3/6 596/3/6 600/3/6
f 600/3/6 596/3/6 601/3/6
f 597/3/6 598/3/6 602/3/6
f 602/3/6 598/3/6 603/3/6
f 599/3/6 600/3/6 605/3/6
f 605/3/6 600/3/6 606/3/6
f 603/3/6 604/3/6 607/3/6
f 607/3/6 604/3/6 608/3/6
f 609/4/6 610/4/6 611/4/6
f 611/4/6 610/4/6 612/4/6
f 613/4/6 614/4/6 615/4/6
f 615/4/6 614/4/6 616/4/6
f 617/3/6 618/3/6 621/3/6
f 621/3/6 618/3/6 622/3/6
f 619/3/6 620/3/6 625/3/6
f 625/3/6 620/3/6 626/3/6
f 622/3/6 623/3/6 627/3/6
f 627/3/6 623/3/6 628/3/6
f 624/3/6 625/3/6 629/3/6
f 629/3/6 625/3/6 630/3/6
f 631/3/6 632/3/6 634/3/6
f 634/3/6 632/3/6 635/3/6
f 633/3/6 634/3/6 638/3/6
f 638/3/6 634/3/6 639/3/6
f 635/3/6 636/3/6 640/3/6
f 640/3/6 636/3/6 641/3/6
f 637/3/6 638/3/6 643/3/6
f 643/3/6 638/3/6 644/3/6
f 641/3/6 642/3/6 647/3/6
f 647/3/6 642/3/6 648/3/6
f 644/3/6 645/3/6 649/3/6
f 649/3/6 645/3/6 650/3/6
f 646/3/6 647/3/6 651/3/6
f 651/3/6 647/3/6 652/3/6
f 650/3/6 651/3/6 653/3/6
f 653/3/6 651/3/6 654/3/6
f 655/3/6 656/3/6 658/3/6
f 658/3/6 656/3/6 659/3/6
f 657/3/6 658/3/6 661/3/6
f 659/3/6 660/3/6 661/3/6
f 658/3/6 659/3/6 661/3/6
f 661/3/6 660/3/6 662/3/6
f 657/3/6 661/3/6 663/3/6
f 661/1/6 662/1/6 664/1/6
f 663/3/6 661/3/6 664/3/6
f 662/3/6 660/3/6 665/3/6
f 664/1/6 662/1/6 665/1/6
f 665/3/6 660/3/6 666/3/6
f 663/1/6 664/1/6 667/1/6
f 657/3/6 663/3/6 667/3/6
f 665/1/6 666/1/6 667/1/6
f 664/1/6 665/1/6 667/1/6
f 667/1/6 666/1/6 668/1/6
f 668/1/6 666/1/6 669/1/6
f 666/3/6 660/3/6 670/3/6
f 669/1/6 666/1/6 670/1/6
f 668/1/6 669/1/6 671/1/6
f 667/3/6 668/3/6 671/3/6
f 669/3/6 670/3/6 672/3/6
f 671/1/6 669/1/6 672/1/6
f 657/3/6 667/3/6 673/3/6
f 667/3/6 671/3/6 673/3/6
f 671/3/6 672/3/6 673/3/6
f 673/3/6 672/3/6 674/3/6
f 670/3/6 660/3/6 675/3/6
f 674/3/6 672/3/6 675/3/6
f 672/3/6 670/3/6 675/3/6
f 675/3/6 660/3/6 676/3/6
f 674/3/6 675/3/6 677/3/6
f 677/3/6 675/3/6 678/3/6
