# MagicaVoxel @ Ephtracy

# group
o 

# material
mtllib RobotPepeGame-3.mtl
usemtl palette

# normals
vn 0 0 1
vn 0 0 -1
vn 1 0 0
vn -1 0 0
vn 0 -1 0
vn 0 1 0

# texcoords
vt 0.751953 0.5
vt 0.884766 0.5
vt 0.888672 0.5

# verts
v 0.1 0.2 0.4
v -0.1 0.2 0.4
v 0.1 0.3 0.4
v 0 0.3 0.4
v 0.1 0.4 0.4
v 0 0.4 0.4
v 0 0.5 0.4
v -0.1 0.5 0.4
v 0.1 0.6 0.4
v 0 0.6 0.4
v -0.1 0.6 0.4
v 0.1 0.1 0.3
v -0.1 0.1 0.3
v 0.2 0.2 0.3
v 0.1 0.2 0.3
v -0.1 0.2 0.3
v -0.2 0.2 0.3
v 0.1 0.3 0.3
v -0.1 0.3 0.3
v -0.2 0.3 0.3
v 0.1 0.4 0.3
v 0.2 0.5 0.3
v 0.1 0.5 0.3
v -0.1 0.5 0.3
v 0.2 0.6 0.3
v 0.1 0.6 0.3
v 0 0.6 0.3
v -0.1 0.6 0.3
v -0.2 0.6 0.3
v 0.1 0.7 0.3
v -0.1 0.7 0.3
v 0.1 0 0.2
v 0 0 0.2
v -0.1 0 0.2
v 0.2 0.1 0.2
v 0.1 0.1 0.2
v 0 0.1 0.2
v -0.1 0.1 0.2
v -0.2 0.1 0.2
v 0.2 0.2 0.2
v 0.1 0.2 0.2
v -0.1 0.2 0.2
v -0.2 0.2 0.2
v 0.2 0.6 0.2
v 0.1 0.6 0.2
v -0.1 0.6 0.2
v -0.2 0.6 0.2
v 0.2 0.7 0.2
v 0.1 0.7 0.2
v 0 0.7 0.2
v -0.1 0.7 0.2
v -0.2 0.7 0.2
v 0.1 0.8 0.2
v 0 0.8 0.2
v -0.1 0.8 0.2
v 0.1 0 -0.2
v 0 0 -0.2
v -0.1 0 -0.2
v 0.2 0.1 -0.2
v 0.1 0.1 -0.2
v 0 0.1 -0.2
v -0.1 0.1 -0.2
v 0.2 0.2 -0.2
v 0.1 0.2 -0.2
v 0.2 0.6 -0.2
v 0.1 0.6 -0.2
v -0.1 0.6 -0.2
v -0.2 0.6 -0.2
v 0.2 0.7 -0.2
v 0.1 0.7 -0.2
v -0.1 0.7 -0.2
v -0.2 0.7 -0.2
v 0.1 0.8 -0.2
v -0.1 0.8 -0.2
v 0.1 0.1 -0.3
v -0.1 0.1 -0.3
v -0.2 0.1 -0.3
v 0.2 0.2 -0.3
v 0.1 0.2 -0.3
v -0.1 0.2 -0.3
v -0.2 0.2 -0.3
v 0.2 0.3 -0.3
v 0.1 0.3 -0.3
v -0.1 0.3 -0.3
v -0.1 0.4 -0.3
v 0.1 0.5 -0.3
v -0.1 0.5 -0.3
v -0.2 0.5 -0.3
v 0.2 0.6 -0.3
v 0.1 0.6 -0.3
v 0 0.6 -0.3
v -0.1 0.6 -0.3
v -0.2 0.6 -0.3
v 0.1 0.7 -0.3
v -0.1 0.7 -0.3
v 0.1 0.2 -0.4
v -0.1 0.2 -0.4
v 0 0.3 -0.4
v -0.1 0.3 -0.4
v 0 0.4 -0.4
v -0.1 0.4 -0.4
v 0.1 0.5 -0.4
v 0 0.5 -0.4
v 0.1 0.6 -0.4
v 0 0.6 -0.4
v -0.1 0.6 -0.4
v 0.2 0.2 0.3
v 0.2 0.5 0.3
v 0.2 0.6 0.3
v 0.2 0.1 0.2
v 0.2 0.2 0.2
v 0.2 0.3 0.2
v 0.2 0.5 0.2
v 0.2 0.6 0.2
v 0.2 0.7 0.2
v 0.2 0.1 0.1
v 0.2 0.2 0.1
v 0.2 0.3 0.1
v 0.2 0.5 0.1
v 0.2 0.6 0.1
v 0.2 0.2 -0.1
v 0.2 0.3 -0.1
v 0.2 0.5 -0.1
v 0.2 0.6 -0.1
v 0.2 0.1 -0.2
v 0.2 0.2 -0.2
v 0.2 0.3 -0.2
v 0.2 0.5 -0.2
v 0.2 0.6 -0.2
v 0.2 0.7 -0.2
v 0.2 0.2 -0.3
v 0.2 0.3 -0.3
v 0.2 0.6 -0.3
v 0.1 0.2 0.4
v 0.1 0.3 0.4
v 0.1 0.4 0.4
v 0.1 0.6 0.4
v 0.1 0.1 0.3
v 0.1 0.2 0.3
v 0.1 0.3 0.3
v 0.1 0.4 0.3
v 0.1 0.5 0.3
v 0.1 0.6 0.3
v 0.1 0.7 0.3
v 0.1 0 0.2
v 0.1 0.1 0.2
v 0.1 0.2 0.2
v 0.1 0.6 0.2
v 0.1 0.7 0.2
v 0.1 0.8 0.2
v 0.1 0.1 0.1
v 0.1 0.7 0
v 0.1 0.8 0
v 0.1 0 -0.1
v 0.1 0.1 -0.1
v 0.1 0.7 -0.1
v 0.1 0.8 -0.1
v 0.1 0 -0.2
v 0.1 0.1 -0.2
v 0.1 0.2 -0.2
v 0.1 0.6 -0.2
v 0.1 0.7 -0.2
v 0.1 0.8 -0.2
v 0.1 0.1 -0.3
v 0.1 0.2 -0.3
v 0.1 0.3 -0.3
v 0.1 0.5 -0.3
v 0.1 0.6 -0.3
v 0.1 0.7 -0.3
v 0.1 0.2 -0.4
v 0.1 0.5 -0.4
v 0.1 0.6 -0.4
v -0.1 0.2 0.4
v -0.1 0.5 0.4
v -0.1 0.6 0.4
v -0.1 0.1 0.3
v -0.1 0.2 0.3
v -0.1 0.3 0.3
v -0.1 0.5 0.3
v -0.1 0.6 0.3
v -0.1 0.7 0.3
v -0.1 0 0.2
v -0.1 0.1 0.2
v -0.1 0.2 0.2
v -0.1 0.6 0.2
v -0.1 0.7 0.2
v -0.1 0.8 0.2
v -0.1 0 0.1
v -0.1 0.1 0.1
v -0.1 0.7 0.1
v -0.1 0.8 0.1
v -0.1 0 -0.2
v -0.1 0.1 -0.2
v -0.1 0.6 -0.2
v -0.1 0.7 -0.2
v -0.1 0.8 -0.2
v -0.1 0.2 -0.3
v -0.1 0.3 -0.3
v -0.1 0.4 -0.3
v -0.1 0.5 -0.3
v -0.1 0.6 -0.3
v -0.1 0.7 -0.3
v -0.1 0.2 -0.4
v -0.1 0.3 -0.4
v -0.1 0.4 -0.4
v -0.1 0.6 -0.4
v -0.2 0.2 0.3
v -0.2 0.3 0.3
v -0.2 0.6 0.3
v -0.2 0.1 0.2
v -0.2 0.2 0.2
v -0.2 0.3 0.2
v -0.2 0.5 0.2
v -0.2 0.6 0.2
v -0.2 0.7 0.2
v -0.2 0.2 0.1
v -0.2 0.3 0.1
v -0.2 0.5 0.1
v -0.2 0.6 0.1
v -0.2 0.2 -0.1
v -0.2 0.3 -0.1
v -0.2 0.5 -0.1
v -0.2 0.6 -0.1
v -0.2 0.1 -0.2
v -0.2 0.2 -0.2
v -0.2 0.3 -0.2
v -0.2 0.5 -0.2
v -0.2 0.6 -0.2
v -0.2 0.7 -0.2
v -0.2 0.1 -0.3
v -0.2 0.2 -0.3
v -0.2 0.5 -0.3
v -0.2 0.6 -0.3
v 0.1 0 0.2
v 0.1 0 -0.1
v 0.1 0 -0.2
v 0 0 0.2
v 0 0 0.1
v 0 0 -0.1
v 0 0 -0.2
v -0.1 0 0.2
v -0.1 0 0.1
v -0.1 0 -0.2
v 0.2 0.1 0.2
v 0.2 0.1 0.1
v 0.2 0.1 -0.2
v 0.1 0.1 0.3
v 0.1 0.1 0.2
v 0.1 0.1 0.1
v 0.1 0.1 -0.1
v 0.1 0.1 -0.2
v 0.1 0.1 -0.3
v 0 0.1 0.2
v 0 0.1 -0.2
v -0.1 0.1 0.3
v -0.1 0.1 0.2
v -0.1 0.1 0.1
v -0.1 0.1 -0.2
v -0.1 0.1 -0.3
v -0.2 0.1 0.2
v -0.2 0.1 -0.2
v -0.2 0.1 -0.3
v 0.2 0.2 0.3
v 0.2 0.2 0.2
v 0.2 0.2 -0.2
v 0.2 0.2 -0.3
v 0.1 0.2 0.4
v 0.1 0.2 0.3
v 0.1 0.2 0.2
v 0.1 0.2 -0.2
v 0.1 0.2 -0.3
v 0.1 0.2 -0.4
v -0.1 0.2 0.4
v -0.1 0.2 0.3
v -0.1 0.2 0.2
v -0.1 0.2 -0.3
v -0.1 0.2 -0.4
v -0.2 0.2 0.3
v -0.2 0.2 0.2
v 0.2 0.6 0.3
v 0.2 0.6 0.2
v 0.2 0.6 -0.2
v 0.2 0.6 -0.3
v 0.1 0.6 0.4
v 0.1 0.6 0.3
v 0.1 0.6 0.2
v 0.1 0.6 -0.2
v 0.1 0.6 -0.3
v 0.1 0.6 -0.4
v 0 0.6 0.4
v 0 0.6 0.3
v 0 0.6 -0.3
v 0 0.6 -0.4
v -0.1 0.6 0.4
v -0.1 0.6 0.3
v -0.1 0.6 0.2
v -0.1 0.6 -0.2
v -0.1 0.6 -0.3
v -0.1 0.6 -0.4
v -0.2 0.6 0.3
v -0.2 0.6 0.2
v -0.2 0.6 -0.2
v -0.2 0.6 -0.3
v 0.2 0.7 0.2
v 0.2 0.7 -0.2
v 0.1 0.7 0.3
v 0.1 0.7 0.2
v 0.1 0.7 0
v 0.1 0.7 -0.1
v 0.1 0.7 -0.2
v 0.1 0.7 -0.3
v 0 0.7 0.2
v -0.1 0.7 0.3
v -0.1 0.7 0.2
v -0.1 0.7 0.1
v -0.1 0.7 -0.2
v -0.1 0.7 -0.3
v -0.2 0.7 0.2
v -0.2 0.7 -0.2
v 0.1 0.8 0.2
v 0.1 0.8 0
v 0.1 0.8 -0.1
v 0.1 0.8 -0.2
v 0 0.8 0.2
v 0 0.8 0.1
v 0 0.8 0
v 0 0.8 -0.1
v -0.1 0.8 0.2
v -0.1 0.8 0.1
v -0.1 0.8 -0.2

# faces
f 3/1/1 2/1/1 1/1/1
f 4/1/1 2/1/1 3/1/1
f 5/2/1 4/2/1 3/2/1
f 6/1/1 2/1/1 4/1/1
f 6/2/1 4/2/1 5/2/1
f 7/1/1 6/1/1 5/1/1
f 7/1/1 2/1/1 6/1/1
f 8/1/1 2/1/1 7/1/1
f 9/1/1 7/1/1 5/1/1
f 10/2/1 8/2/1 7/2/1
f 10/1/1 7/1/1 9/1/1
f 11/2/1 8/2/1 10/2/1
f 15/1/1 13/1/1 12/1/1
f 16/1/1 13/1/1 15/1/1
f 18/1/1 15/1/1 14/1/1
f 19/2/1 17/2/1 16/2/1
f 20/2/1 17/2/1 19/2/1
f 21/1/1 18/1/1 14/1/1
f 22/1/1 21/1/1 14/1/1
f 23/1/1 21/1/1 22/1/1
f 24/1/1 20/1/1 19/1/1
f 25/2/1 23/2/1 22/2/1
f 26/2/1 23/2/1 25/2/1
f 28/1/1 20/1/1 24/1/1
f 29/1/1 20/1/1 28/1/1
f 30/1/1 27/1/1 26/1/1
f 30/1/1 28/1/1 27/1/1
f 31/1/1 28/1/1 30/1/1
f 36/1/1 33/1/1 32/1/1
f 37/2/1 34/2/1 33/2/1
f 37/1/1 33/1/1 36/1/1
f 38/2/1 34/2/1 37/2/1
f 40/2/1 36/2/1 35/2/1
f 41/2/1 36/2/1 40/2/1
f 42/1/1 39/1/1 38/1/1
f 43/1/1 39/1/1 42/1/1
f 48/1/1 45/1/1 44/1/1
f 49/1/1 45/1/1 48/1/1
f 51/1/1 47/1/1 46/1/1
f 52/1/1 47/1/1 51/1/1
f 53/1/1 50/1/1 49/1/1
f 54/2/1 51/2/1 50/2/1
f 54/1/1 50/1/1 53/1/1
f 55/2/1 51/2/1 54/2/1
f 56/2/2 57/2/2 60/2/2
f 57/1/2 58/1/2 61/1/2
f 60/2/2 57/2/2 61/2/2
f 61/1/2 58/1/2 62/1/2
f 59/1/2 60/1/2 63/1/2
f 63/1/2 60/1/2 64/1/2
f 65/1/2 66/1/2 69/1/2
f 69/1/2 66/1/2 70/1/2
f 67/1/2 68/1/2 71/1/2
f 71/1/2 68/1/2 72/1/2
f 70/1/2 71/1/2 73/1/2
f 73/1/2 71/1/2 74/1/2
f 75/1/2 76/1/2 79/1/2
f 76/2/2 77/2/2 80/2/2
f 79/1/2 76/1/2 80/1/2
f 80/2/2 77/2/2 81/2/2
f 78/2/2 79/2/2 82/2/2
f 82/2/2 79/2/2 83/2/2
f 80/1/2 81/1/2 84/1/2
f 84/1/2 81/1/2 85/1/2
f 82/1/2 83/1/2 86/1/2
f 85/1/2 81/1/2 87/1/2
f 87/1/2 81/1/2 88/1/2
f 82/1/2 86/1/2 89/1/2
f 89/1/2 86/1/2 90/1/2
f 87/2/2 88/2/2 92/2/2
f 92/2/2 88/2/2 93/2/2
f 90/1/2 91/1/2 94/1/2
f 91/1/2 92/1/2 94/1/2
f 94/1/2 92/1/2 95/1/2
f 96/1/2 97/1/2 98/1/2
f 98/1/2 97/1/2 99/1/2
f 96/1/2 98/1/2 100/1/2
f 98/2/2 99/2/2 100/2/2
f 100/2/2 99/2/2 101/2/2
f 96/1/2 100/1/2 102/1/2
f 100/1/2 101/1/2 102/1/2
f 102/1/2 101/1/2 103/1/2
f 102/2/2 103/2/2 104/2/2
f 103/1/2 101/1/2 105/1/2
f 104/2/2 103/2/2 105/2/2
f 105/1/2 101/1/2 106/1/2
f 111/1/3 108/1/3 107/1/3
f 112/1/3 108/1/3 111/1/3
f 113/2/3 109/2/3 108/2/3
f 113/1/3 108/1/3 112/1/3
f 114/2/3 109/2/3 113/2/3
f 116/2/3 111/2/3 110/2/3
f 117/1/3 112/1/3 111/1/3
f 117/2/3 111/2/3 116/2/3
f 118/3/3 113/3/3 112/3/3
f 118/1/3 112/1/3 117/1/3
f 119/1/3 115/1/3 114/1/3
f 119/3/3 113/3/3 118/3/3
f 119/1/3 114/1/3 113/1/3
f 120/1/3 115/1/3 119/1/3
f 121/3/3 118/3/3 117/3/3
f 121/1/3 117/1/3 116/1/3
f 121/3/3 120/3/3 119/3/3
f 121/3/3 119/3/3 118/3/3
f 122/3/3 120/3/3 121/3/3
f 123/3/3 120/3/3 122/3/3
f 124/1/3 115/1/3 120/1/3
f 124/3/3 120/3/3 123/3/3
f 125/1/3 121/1/3 116/1/3
f 125/1/3 122/1/3 121/1/3
f 126/1/3 122/1/3 125/1/3
f 127/3/3 123/3/3 122/3/3
f 127/1/3 122/1/3 126/1/3
f 128/1/3 124/1/3 123/1/3
f 128/3/3 123/3/3 127/3/3
f 129/1/3 115/1/3 124/1/3
f 129/1/3 124/1/3 128/1/3
f 130/1/3 115/1/3 129/1/3
f 131/2/3 127/2/3 126/2/3
f 132/1/3 128/1/3 127/1/3
f 132/2/3 127/2/3 131/2/3
f 132/1/3 129/1/3 128/1/3
f 133/1/3 129/1/3 132/1/3
f 139/1/3 135/1/3 134/1/3
f 140/2/3 136/2/3 135/2/3
f 140/1/3 135/1/3 139/1/3
f 141/1/3 137/1/3 136/1/3
f 141/2/3 136/2/3 140/2/3
f 142/1/3 137/1/3 141/1/3
f 143/1/3 137/1/3 142/1/3
f 146/1/3 139/1/3 138/1/3
f 147/1/3 139/1/3 146/1/3
f 148/1/3 144/1/3 143/1/3
f 149/1/3 144/1/3 148/1/3
f 151/1/3 146/1/3 145/1/3
f 152/1/3 150/1/3 149/1/3
f 153/1/3 150/1/3 152/1/3
f 154/1/3 151/1/3 145/1/3
f 155/1/3 151/1/3 154/1/3
f 156/2/3 153/2/3 152/2/3
f 157/2/3 153/2/3 156/2/3
f 158/2/3 155/2/3 154/2/3
f 159/2/3 155/2/3 158/2/3
f 162/1/3 157/1/3 156/1/3
f 163/1/3 157/1/3 162/1/3
f 164/1/3 160/1/3 159/1/3
f 165/1/3 160/1/3 164/1/3
f 168/1/3 162/1/3 161/1/3
f 169/1/3 162/1/3 168/1/3
f 170/1/3 167/1/3 166/1/3
f 170/1/3 166/1/3 165/1/3
f 171/2/3 168/2/3 167/2/3
f 171/1/3 167/1/3 170/1/3
f 172/2/3 168/2/3 171/2/3
f 173/1/4 174/1/4 177/1/4
f 177/1/4 174/1/4 178/1/4
f 174/2/4 175/2/4 179/2/4
f 178/1/4 174/1/4 179/1/4
f 179/2/4 175/2/4 180/2/4
f 176/1/4 177/1/4 183/1/4
f 183/1/4 177/1/4 184/1/4
f 180/1/4 181/1/4 185/1/4
f 185/1/4 181/1/4 186/1/4
f 182/2/4 183/2/4 188/2/4
f 188/2/4 183/2/4 189/2/4
f 186/2/4 187/2/4 190/2/4
f 190/2/4 187/2/4 191/2/4
f 188/1/4 189/1/4 192/1/4
f 192/1/4 189/1/4 193/1/4
f 190/1/4 191/1/4 195/1/4
f 195/1/4 191/1/4 196/1/4
f 194/1/4 195/1/4 201/1/4
f 201/1/4 195/1/4 202/1/4
f 197/1/4 198/1/4 203/1/4
f 198/2/4 199/2/4 204/2/4
f 203/1/4 198/1/4 204/1/4
f 199/1/4 200/1/4 205/1/4
f 204/2/4 199/2/4 205/2/4
f 200/1/4 201/1/4 205/1/4
f 205/1/4 201/1/4 206/1/4
f 207/2/4 208/2/4 211/2/4
f 208/1/4 209/1/4 212/1/4
f 211/2/4 208/2/4 212/2/4
f 212/1/4 209/1/4 213/1/4
f 213/1/4 209/1/4 214/1/4
f 210/1/4 211/1/4 216/1/4
f 211/1/4 212/1/4 216/1/4
f 212/3/4 213/3/4 217/3/4
f 216/1/4 212/1/4 217/1/4
f 214/1/4 215/1/4 218/1/4
f 217/3/4 213/3/4 218/3/4
f 213/1/4 214/1/4 218/1/4
f 218/1/4 215/1/4 219/1/4
f 216/3/4 217/3/4 220/3/4
f 210/1/4 216/1/4 220/1/4
f 218/3/4 219/3/4 220/3/4
f 217/3/4 218/3/4 220/3/4
f 220/3/4 219/3/4 221/3/4
f 221/3/4 219/3/4 222/3/4
f 219/1/4 215/1/4 223/1/4
f 222/3/4 219/3/4 223/3/4
f 210/1/4 220/1/4 224/1/4
f 220/1/4 221/1/4 224/1/4
f 224/1/4 221/1/4 225/1/4
f 221/3/4 222/3/4 226/3/4
f 225/1/4 221/1/4 226/1/4
f 222/1/4 223/1/4 227/1/4
f 226/3/4 222/3/4 227/3/4
f 223/1/4 215/1/4 228/1/4
f 227/1/4 223/1/4 228/1/4
f 228/1/4 215/1/4 229/1/4
f 224/2/4 225/2/4 230/2/4
f 226/1/4 227/1/4 231/1/4
f 230/2/4 225/2/4 231/2/4
f 225/1/4 226/1/4 231/1/4
f 227/2/4 228/2/4 232/2/4
f 231/1/4 227/1/4 232/1/4
f 232/2/4 228/2/4 233/2/4
f 237/1/5 235/1/5 234/1/5
f 238/1/5 235/1/5 237/1/5
f 239/2/5 236/2/5 235/2/5
f 239/1/5 235/1/5 238/1/5
f 240/2/5 236/2/5 239/2/5
f 241/2/5 238/2/5 237/2/5
f 242/1/5 239/1/5 238/1/5
f 242/2/5 238/2/5 241/2/5
f 242/1/5 240/1/5 239/1/5
f 243/1/5 240/1/5 242/1/5
f 248/2/5 245/2/5 244/2/5
f 249/1/5 246/1/5 245/1/5
f 249/2/5 245/2/5 248/2/5
f 250/1/5 246/1/5 249/1/5
f 251/1/5 246/1/5 250/1/5
f 253/1/5 248/1/5 247/1/5
f 254/1/5 252/1/5 251/1/5
f 255/1/5 253/1/5 247/1/5
f 256/1/5 253/1/5 255/1/5
f 258/1/5 252/1/5 254/1/5
f 259/1/5 252/1/5 258/1/5
f 260/1/5 257/1/5 256/1/5
f 260/1/5 258/1/5 257/1/5
f 261/2/5 259/2/5 258/2/5
f 261/1/5 258/1/5 260/1/5
f 262/2/5 259/2/5 261/2/5
f 268/1/5 264/1/5 263/1/5
f 269/1/5 264/1/5 268/1/5
f 270/2/5 266/2/5 265/2/5
f 271/2/5 266/2/5 270/2/5
f 273/1/5 268/1/5 267/1/5
f 274/1/5 268/1/5 273/1/5
f 276/1/5 272/1/5 271/1/5
f 277/1/5 272/1/5 276/1/5
f 278/2/5 275/2/5 274/2/5
f 279/2/5 275/2/5 278/2/5
f 280/2/6 281/2/6 285/2/6
f 285/2/6 281/2/6 286/2/6
f 282/1/6 283/1/6 287/1/6
f 287/1/6 283/1/6 288/1/6
f 284/1/6 285/1/6 290/1/6
f 290/1/6 285/1/6 291/1/6
f 288/2/6 289/2/6 292/2/6
f 292/2/6 289/2/6 293/2/6
f 290/2/6 291/2/6 294/2/6
f 294/2/6 291/2/6 295/2/6
f 292/1/6 293/1/6 298/1/6
f 298/1/6 293/1/6 299/1/6
f 295/1/6 296/1/6 300/1/6
f 300/1/6 296/1/6 301/1/6
f 297/2/6 298/2/6 302/2/6
f 302/2/6 298/2/6 303/2/6
f 304/1/6 305/1/6 307/1/6
f 307/1/6 305/1/6 308/1/6
f 308/1/6 305/1/6 309/1/6
f 309/1/6 305/1/6 310/1/6
f 306/1/6 307/1/6 312/1/6
f 306/1/6 312/1/6 313/1/6
f 313/1/6 312/1/6 314/1/6
f 310/1/6 311/1/6 316/1/6
f 316/1/6 311/1/6 317/1/6
f 314/1/6 315/1/6 318/1/6
f 315/1/6 316/1/6 318/1/6
f 318/1/6 316/1/6 319/1/6
f 320/1/6 321/1/6 324/1/6
f 324/1/6 321/1/6 325/1/6
f 321/2/6 322/2/6 326/2/6
f 325/1/6 321/1/6 326/1/6
f 322/1/6 323/1/6 327/1/6
f 326/2/6 322/2/6 327/2/6
f 324/2/6 325/2/6 328/2/6
f 325/1/6 326/1/6 329/1/6
f 328/2/6 325/2/6 329/2/6
f 326/1/6 327/1/6 329/1/6
f 327/1/6 323/1/6 330/1/6
f 329/1/6 327/1/6 330/1/6
