# MagicaVoxel @ Ephtracy

# group
o 

# material
mtllib PepeGameTrap-0.mtl
usemtl palette

# normals
vn -1 0 0
vn 1 0 0
vn 0 0 1
vn 0 0 -1
vn 0 -1 0
vn 0 1 0

# texcoords
vt 0.728516 0.5
vt 0.751953 0.5
vt 0.896484 0.5

# verts
v -0.9 0 0.4
v -0.9 0 -0.4
v -0.9 0.1 0.4
v -0.9 0.1 -0.4
v 0.9 0 0.4
v 0.9 0 -0.4
v 0.9 0.1 0.4
v 0.9 0.1 -0.4
v -0.9 0 0.4
v -0.9 0.1 0.4
v -0.2 0 0.4
v -0.2 0.1 0.4
v 0.1 0 0.4
v 0.1 0.1 0.4
v 0.9 0 0.4
v 0.9 0.1 0.4
v -0.9 0 -0.4
v -0.9 0.1 -0.4
v 0.9 0 -0.4
v 0.9 0.1 -0.4
v -0.9 0 0.4
v -0.2 0 0.4
v 0.1 0 0.4
v 0.9 0 0.4
v -0.3 0 0.3
v -0.2 0 0.3
v -0.1 0 0.3
v 0 0 0.3
v 0.1 0 0.3
v 0.2 0 0.3
v -0.4 0 0.2
v -0.3 0 0.2
v -0.2 0 0.2
v -0.1 0 0.2
v 0 0 0.2
v 0.1 0 0.2
v 0.2 0 0.2
v 0.3 0 0.2
v -0.1 0 0.1
v 0 0 0.1
v -0.4 0 -0.1
v -0.3 0 -0.1
v -0.2 0 -0.1
v -0.1 0 -0.1
v 0 0 -0.1
v 0.1 0 -0.1
v 0.2 0 -0.1
v 0.3 0 -0.1
v -0.3 0 -0.2
v -0.2 0 -0.2
v 0.1 0 -0.2
v 0.2 0 -0.2
v -0.2 0 -0.3
v 0.1 0 -0.3
v -0.9 0 -0.4
v 0.9 0 -0.4
v -0.9 0.1 0.4
v -0.2 0.1 0.4
v 0.1 0.1 0.4
v 0.9 0.1 0.4
v -0.3 0.1 0.3
v -0.2 0.1 0.3
v -0.1 0.1 0.3
v 0 0.1 0.3
v 0.1 0.1 0.3
v 0.2 0.1 0.3
v -0.4 0.1 0.2
v -0.3 0.1 0.2
v -0.2 0.1 0.2
v -0.1 0.1 0.2
v 0 0.1 0.2
v 0.1 0.1 0.2
v 0.2 0.1 0.2
v 0.3 0.1 0.2
v -0.1 0.1 0.1
v 0 0.1 0.1
v -0.4 0.1 -0.1
v -0.3 0.1 -0.1
v -0.2 0.1 -0.1
v -0.1 0.1 -0.1
v 0 0.1 -0.1
v 0.1 0.1 -0.1
v 0.2 0.1 -0.1
v 0.3 0.1 -0.1
v -0.3 0.1 -0.2
v -0.2 0.1 -0.2
v 0.1 0.1 -0.2
v 0.2 0.1 -0.2
v -0.2 0.1 -0.3
v 0.1 0.1 -0.3
v -0.9 0.1 -0.4
v 0.9 0.1 -0.4

# faces
f 3/3/1 2/3/1 1/3/1
f 4/3/1 2/3/1 3/3/1
f 5/3/2 6/3/2 7/3/2
f 7/3/2 6/3/2 8/3/2
f 11/3/3 10/3/3 9/3/3
f 12/3/3 10/3/3 11/3/3
f 13/2/3 12/2/3 11/2/3
f 14/2/3 12/2/3 13/2/3
f 15/3/3 14/3/3 13/3/3
f 16/3/3 14/3/3 15/3/3
f 17/3/4 18/3/4 19/3/4
f 19/3/4 18/3/4 20/3/4
f 25/3/5 22/3/5 21/3/5
f 26/2/5 23/2/5 22/2/5
f 26/3/5 22/3/5 25/3/5
f 27/2/5 23/2/5 26/2/5
f 28/2/5 23/2/5 27/2/5
f 29/3/5 24/3/5 23/3/5
f 29/2/5 23/2/5 28/2/5
f 30/3/5 24/3/5 29/3/5
f 31/3/5 25/3/5 21/3/5
f 32/2/5 26/2/5 25/2/5
f 32/3/5 25/3/5 31/3/5
f 33/1/5 27/1/5 26/1/5
f 33/2/5 26/2/5 32/2/5
f 34/2/5 28/2/5 27/2/5
f 34/1/5 27/1/5 33/1/5
f 35/1/5 29/1/5 28/1/5
f 35/2/5 28/2/5 34/2/5
f 36/2/5 30/2/5 29/2/5
f 36/1/5 29/1/5 35/1/5
f 37/3/5 24/3/5 30/3/5
f 37/2/5 30/2/5 36/2/5
f 38/3/5 24/3/5 37/3/5
f 39/1/5 33/1/5 32/1/5
f 39/1/5 36/1/5 35/1/5
f 39/1/5 34/1/5 33/1/5
f 39/1/5 37/1/5 36/1/5
f 39/1/5 35/1/5 34/1/5
f 40/1/5 37/1/5 39/1/5
f 41/3/5 31/3/5 21/3/5
f 41/2/5 32/2/5 31/2/5
f 42/1/5 39/1/5 32/1/5
f 42/2/5 32/2/5 41/2/5
f 43/1/5 39/1/5 42/1/5
f 44/2/5 40/2/5 39/2/5
f 44/1/5 39/1/5 43/1/5
f 45/1/5 37/1/5 40/1/5
f 45/2/5 40/2/5 44/2/5
f 46/1/5 37/1/5 45/1/5
f 47/2/5 38/2/5 37/2/5
f 47/1/5 37/1/5 46/1/5
f 48/3/5 24/3/5 38/3/5
f 48/2/5 38/2/5 47/2/5
f 49/2/5 43/2/5 42/2/5
f 49/3/5 42/3/5 41/3/5
f 50/1/5 46/1/5 45/1/5
f 50/2/5 43/2/5 49/2/5
f 50/1/5 44/1/5 43/1/5
f 50/1/5 45/1/5 44/1/5
f 51/2/5 47/2/5 46/2/5
f 51/1/5 46/1/5 50/1/5
f 52/3/5 48/3/5 47/3/5
f 52/2/5 47/2/5 51/2/5
f 53/3/5 50/3/5 49/3/5
f 53/2/5 51/2/5 50/2/5
f 54/3/5 52/3/5 51/3/5
f 54/2/5 51/2/5 53/2/5
f 55/3/5 49/3/5 41/3/5
f 55/3/5 53/3/5 49/3/5
f 55/3/5 54/3/5 53/3/5
f 55/3/5 41/3/5 21/3/5
f 56/3/5 48/3/5 52/3/5
f 56/3/5 54/3/5 55/3/5
f 56/3/5 52/3/5 54/3/5
f 56/3/5 24/3/5 48/3/5
f 57/3/6 58/3/6 61/3/6
f 58/2/6 59/2/6 62/2/6
f 61/3/6 58/3/6 62/3/6
f 62/2/6 59/2/6 63/2/6
f 63/2/6 59/2/6 64/2/6
f 59/3/6 60/3/6 65/3/6
f 64/2/6 59/2/6 65/2/6
f 65/3/6 60/3/6 66/3/6
f 57/3/6 61/3/6 67/3/6
f 61/2/6 62/2/6 68/2/6
f 67/3/6 61/3/6 68/3/6
f 62/1/6 63/1/6 69/1/6
f 68/2/6 62/2/6 69/2/6
f 63/2/6 64/2/6 70/2/6
f 69/1/6 63/1/6 70/1/6
f 64/1/6 65/1/6 71/1/6
f 70/2/6 64/2/6 71/2/6
f 65/2/6 66/2/6 72/2/6
f 71/1/6 65/1/6 72/1/6
f 66/3/6 60/3/6 73/3/6
f 72/2/6 66/2/6 73/2/6
f 73/3/6 60/3/6 74/3/6
f 68/1/6 69/1/6 75/1/6
f 71/1/6 72/1/6 75/1/6
f 69/1/6 70/1/6 75/1/6
f 72/1/6 73/1/6 75/1/6
f 70/1/6 71/1/6 75/1/6
f 75/1/6 73/1/6 76/1/6
f 57/3/6 67/3/6 77/3/6
f 67/2/6 68/2/6 77/2/6
f 68/1/6 75/1/6 78/1/6
f 77/2/6 68/2/6 78/2/6
f 78/1/6 75/1/6 79/1/6
f 75/2/6 76/2/6 80/2/6
f 79/1/6 75/1/6 80/1/6
f 76/1/6 73/1/6 81/1/6
f 80/2/6 76/2/6 81/2/6
f 81/1/6 73/1/6 82/1/6
f 73/2/6 74/2/6 83/2/6
f 82/1/6 73/1/6 83/1/6
f 74/3/6 60/3/6 84/3/6
f 83/2/6 74/2/6 84/2/6
f 78/2/6 79/2/6 85/2/6
f 77/3/6 78/3/6 85/3/6
f 81/1/6 82/1/6 86/1/6
f 85/2/6 79/2/6 86/2/6
f 79/1/6 80/1/6 86/1/6
f 80/1/6 81/1/6 86/1/6
f 82/2/6 83/2/6 87/2/6
f 86/1/6 82/1/6 87/1/6
f 83/3/6 84/3/6 88/3/6
f 87/2/6 83/2/6 88/2/6
f 85/3/6 86/3/6 89/3/6
f 86/2/6 87/2/6 89/2/6
f 87/3/6 88/3/6 90/3/6
f 89/2/6 87/2/6 90/2/6
f 77/3/6 85/3/6 91/3/6
f 85/3/6 89/3/6 91/3/6
f 89/3/6 90/3/6 91/3/6
f 57/3/6 77/3/6 91/3/6
f 88/3/6 84/3/6 92/3/6
f 91/3/6 90/3/6 92/3/6
f 90/3/6 88/3/6 92/3/6
f 84/3/6 60/3/6 92/3/6
