# MagicaVoxel @ Ephtracy

# group
o 

# material
mtllib SmallCastleFloor.mtl
usemtl palette

# normals
vn -1 0 0
vn 1 0 0
vn 0 0 1
vn 0 0 -1
vn 0 -1 0
vn 0 1 0

# texcoords
vt 0.814453 0.5
vt 0.845703 0.5
vt 0.876953 0.5

# verts
v -0.5 1 12.4
v -0.5 1 11.2
v -0.5 3.2 12.2
v -0.5 3.2 12
v -0.5 3.2 11.4
v -0.5 3.3 12.3
v -0.5 3.3 12.2
v -0.5 3.3 12
v -0.5 3.3 11.4
v -0.5 3.3 11.3
v -0.5 3.4 12.4
v -0.5 3.4 12.3
v -0.5 3.4 11.3
v -0.5 3.4 11.2
v -0.4 3.2 12.2
v -0.4 3.2 12
v -0.4 3.3 12.2
v -0.4 3.3 12
v -0.1 3.2 12.2
v -0.1 3.2 12.1
v -0.1 3.2 11.9
v -0.1 3.2 11.6
v -0.1 3.2 11.5
v -0.1 3.2 11.4
v -0.1 3.3 12.4
v -0.1 3.3 12.3
v -0.1 3.3 12.2
v -0.1 3.3 12.1
v -0.1 3.3 11.9
v -0.1 3.3 11.6
v -0.1 3.3 11.5
v -0.1 3.3 11.4
v -0.1 3.3 11.3
v -0.1 3.3 11.2
v -0.1 3.4 12.4
v -0.1 3.4 12.3
v -0.1 3.4 11.3
v -0.1 3.4 11.2
v 0 3.2 11.9
v 0 3.2 11.7
v 0 3.2 11.6
v 0 3.3 11.9
v 0 3.3 11.7
v 0 3.3 11.6
v 0.3 3.2 12.2
v 0.3 3.2 12
v 0.3 3.2 11.7
v 0.3 3.2 11.5
v 0.3 3.2 11.4
v 0.3 3.3 12.4
v 0.3 3.3 12.3
v 0.3 3.3 12.2
v 0.3 3.3 12
v 0.3 3.3 11.7
v 0.3 3.3 11.5
v 0.3 3.3 11.4
v 0.3 3.3 11.3
v 0.3 3.3 11.2
v 0.3 3.4 12.4
v 0.3 3.4 12.3
v 0.3 3.4 11.3
v 0.3 3.4 11.2
v 0.4 3.2 12
v 0.4 3.2 11.7
v 0.4 3.3 12
v 0.4 3.3 11.7
v -0.3 3.3 12.4
v -0.3 3.3 12.3
v -0.3 3.3 11.3
v -0.3 3.3 11.2
v -0.3 3.4 12.4
v -0.3 3.4 12.3
v -0.3 3.4 11.3
v -0.3 3.4 11.2
v -0.2 3.2 12.2
v -0.2 3.2 11.7
v -0.2 3.2 11.5
v -0.2 3.2 11.4
v -0.2 3.3 12.2
v -0.2 3.3 11.7
v -0.2 3.3 11.5
v -0.2 3.3 11.4
v 0.1 3.3 12.4
v 0.1 3.3 12.3
v 0.1 3.3 11.3
v 0.1 3.3 11.2
v 0.1 3.4 12.4
v 0.1 3.4 12.3
v 0.1 3.4 11.3
v 0.1 3.4 11.2
v 0.2 3.2 12.2
v 0.2 3.2 11.4
v 0.2 3.3 12.2
v 0.2 3.3 11.4
v 0.5 3.3 12.4
v 0.5 3.3 12.3
v 0.5 3.3 11.3
v 0.5 3.3 11.2
v 0.5 3.4 12.4
v 0.5 3.4 12.3
v 0.5 3.4 11.3
v 0.5 3.4 11.2
v 0.6 3.2 12.2
v 0.6 3.2 12.1
v 0.6 3.2 11.9
v 0.6 3.2 11.4
v 0.6 3.3 12.2
v 0.6 3.3 12.1
v 0.6 3.3 11.9
v 0.6 3.3 11.4
v 0.7 1 12.4
v 0.7 1 11.2
v 0.7 3.2 12.2
v 0.7 3.2 11.4
v 0.7 3.3 12.4
v 0.7 3.3 12.2
v 0.7 3.3 11.4
v 0.7 3.3 11.2
v -0.5 1 12.4
v -0.5 3.4 12.4
v -0.3 3.3 12.4
v -0.3 3.4 12.4
v -0.1 3.3 12.4
v -0.1 3.4 12.4
v 0.1 3.3 12.4
v 0.1 3.4 12.4
v 0.3 3.3 12.4
v 0.3 3.4 12.4
v 0.5 3.3 12.4
v 0.5 3.4 12.4
v 0.7 1 12.4
v 0.7 3.3 12.4
v -0.5 3.2 12
v -0.5 3.3 12
v -0.4 3.2 12
v -0.4 3.3 12
v 0.3 3.2 11.7
v 0.3 3.3 11.7
v 0.4 3.2 11.7
v 0.4 3.3 11.7
v -0.1 3.2 11.6
v -0.1 3.3 11.6
v 0 3.2 11.6
v 0 3.3 11.6
v -0.2 3.2 11.4
v -0.2 3.3 11.4
v -0.1 3.2 11.4
v -0.1 3.3 11.4
v 0.2 3.2 11.4
v 0.2 3.3 11.4
v 0.3 3.2 11.4
v 0.3 3.3 11.4
v 0.6 3.2 11.4
v 0.6 3.3 11.4
v 0.7 3.2 11.4
v 0.7 3.3 11.4
v -0.5 3.3 11.3
v -0.5 3.4 11.3
v -0.3 3.3 11.3
v -0.3 3.4 11.3
v -0.1 3.3 11.3
v -0.1 3.4 11.3
v 0.1 3.3 11.3
v 0.1 3.4 11.3
v 0.3 3.3 11.3
v 0.3 3.4 11.3
v 0.5 3.3 11.3
v 0.5 3.4 11.3
v -0.5 3.3 12.3
v -0.5 3.4 12.3
v -0.3 3.3 12.3
v -0.3 3.4 12.3
v -0.1 3.3 12.3
v -0.1 3.4 12.3
v 0.1 3.3 12.3
v 0.1 3.4 12.3
v 0.3 3.3 12.3
v 0.3 3.4 12.3
v 0.5 3.3 12.3
v 0.5 3.4 12.3
v -0.5 3.2 12.2
v -0.5 3.3 12.2
v -0.4 3.2 12.2
v -0.4 3.3 12.2
v -0.2 3.2 12.2
v -0.2 3.3 12.2
v -0.1 3.2 12.2
v -0.1 3.3 12.2
v 0.2 3.2 12.2
v 0.2 3.3 12.2
v 0.3 3.2 12.2
v 0.3 3.3 12.2
v 0.6 3.2 12.2
v 0.6 3.3 12.2
v 0.7 3.2 12.2
v 0.7 3.3 12.2
v 0.3 3.2 12
v 0.3 3.3 12
v 0.4 3.2 12
v 0.4 3.3 12
v -0.1 3.2 11.9
v -0.1 3.3 11.9
v 0 3.2 11.9
v 0 3.3 11.9
v -0.5 1 11.2
v -0.5 3.4 11.2
v -0.3 3.3 11.2
v -0.3 3.4 11.2
v -0.1 3.3 11.2
v -0.1 3.4 11.2
v 0.1 3.3 11.2
v 0.1 3.4 11.2
v 0.3 3.3 11.2
v 0.3 3.4 11.2
v 0.5 3.3 11.2
v 0.5 3.4 11.2
v 0.7 1 11.2
v 0.7 3.3 11.2
v -0.5 1 12.4
v 0.7 1 12.4
v -0.5 1 11.2
v 0.7 1 11.2
v -0.5 3.2 12.2
v -0.4 3.2 12.2
v -0.2 3.2 12.2
v -0.1 3.2 12.2
v 0.2 3.2 12.2
v 0.3 3.2 12.2
v 0.6 3.2 12.2
v 0.7 3.2 12.2
v -0.1 3.2 12.1
v 0.6 3.2 12.1
v -0.5 3.2 12
v -0.4 3.2 12
v 0.3 3.2 12
v 0.4 3.2 12
v -0.1 3.2 11.9
v 0 3.2 11.9
v 0.6 3.2 11.9
v -0.2 3.2 11.7
v 0 3.2 11.7
v 0.3 3.2 11.7
v 0.4 3.2 11.7
v -0.1 3.2 11.6
v 0 3.2 11.6
v -0.2 3.2 11.5
v -0.1 3.2 11.5
v 0.3 3.2 11.5
v -0.2 3.2 11.4
v -0.1 3.2 11.4
v 0.2 3.2 11.4
v 0.3 3.2 11.4
v 0.6 3.2 11.4
v 0.7 3.2 11.4
v -0.3 3.3 12.4
v -0.1 3.3 12.4
v 0.1 3.3 12.4
v 0.3 3.3 12.4
v 0.5 3.3 12.4
v 0.7 3.3 12.4
v -0.5 3.3 12.3
v -0.3 3.3 12.3
v -0.1 3.3 12.3
v 0.1 3.3 12.3
v 0.3 3.3 12.3
v 0.5 3.3 12.3
v -0.5 3.3 12.2
v -0.4 3.3 12.2
v -0.2 3.3 12.2
v -0.1 3.3 12.2
v 0.2 3.3 12.2
v 0.3 3.3 12.2
v 0.6 3.3 12.2
v 0.7 3.3 12.2
v -0.1 3.3 12.1
v 0.1 3.3 12.1
v 0.4 3.3 12.1
v 0.6 3.3 12.1
v -0.5 3.3 12
v -0.4 3.3 12
v 0.3 3.3 12
v 0.4 3.3 12
v 0.5 3.3 12
v -0.1 3.3 11.9
v 0 3.3 11.9
v 0.1 3.3 11.9
v 0.5 3.3 11.9
v 0.6 3.3 11.9
v -0.3 3.3 11.7
v -0.2 3.3 11.7
v 0 3.3 11.7
v 0.1 3.3 11.7
v 0.3 3.3 11.7
v 0.4 3.3 11.7
v 0.5 3.3 11.7
v -0.1 3.3 11.6
v 0 3.3 11.6
v -0.3 3.3 11.5
v -0.2 3.3 11.5
v -0.1 3.3 11.5
v 0.1 3.3 11.5
v 0.3 3.3 11.5
v 0.5 3.3 11.5
v -0.5 3.3 11.4
v -0.2 3.3 11.4
v -0.1 3.3 11.4
v 0.2 3.3 11.4
v 0.3 3.3 11.4
v 0.6 3.3 11.4
v 0.7 3.3 11.4
v -0.5 3.3 11.3
v -0.3 3.3 11.3
v -0.1 3.3 11.3
v 0.1 3.3 11.3
v 0.3 3.3 11.3
v 0.5 3.3 11.3
v -0.3 3.3 11.2
v -0.1 3.3 11.2
v 0.1 3.3 11.2
v 0.3 3.3 11.2
v 0.5 3.3 11.2
v 0.7 3.3 11.2
v -0.5 3.4 12.4
v -0.3 3.4 12.4
v -0.1 3.4 12.4
v 0.1 3.4 12.4
v 0.3 3.4 12.4
v 0.5 3.4 12.4
v -0.5 3.4 12.3
v -0.3 3.4 12.3
v -0.1 3.4 12.3
v 0.1 3.4 12.3
v 0.3 3.4 12.3
v 0.5 3.4 12.3
v -0.5 3.4 11.3
v -0.3 3.4 11.3
v -0.1 3.4 11.3
v 0.1 3.4 11.3
v 0.3 3.4 11.3
v 0.5 3.4 11.3
v -0.5 3.4 11.2
v -0.3 3.4 11.2
v -0.1 3.4 11.2
v 0.1 3.4 11.2
v 0.3 3.4 11.2
v 0.5 3.4 11.2

# faces
f 3/3/1 2/3/1 1/3/1
f 4/3/1 2/3/1 3/3/1
f 5/3/1 2/3/1 4/3/1
f 6/3/1 3/3/1 1/3/1
f 7/3/1 3/3/1 6/3/1
f 8/2/1 5/2/1 4/2/1
f 9/3/1 2/3/1 5/3/1
f 9/2/1 5/2/1 8/2/1
f 10/3/1 2/3/1 9/3/1
f 11/3/1 6/3/1 1/3/1
f 12/3/1 6/3/1 11/3/1
f 13/3/1 2/3/1 10/3/1
f 14/3/1 2/3/1 13/3/1
f 17/2/1 16/2/1 15/2/1
f 18/2/1 16/2/1 17/2/1
f 27/2/1 20/2/1 19/2/1
f 28/1/1 21/1/1 20/1/1
f 28/2/1 20/2/1 27/2/1
f 29/1/1 21/1/1 28/1/1
f 30/1/1 23/1/1 22/1/1
f 31/2/1 24/2/1 23/2/1
f 31/1/1 23/1/1 30/1/1
f 32/2/1 24/2/1 31/2/1
f 35/3/1 26/3/1 25/3/1
f 36/3/1 26/3/1 35/3/1
f 37/3/1 34/3/1 33/3/1
f 38/3/1 34/3/1 37/3/1
f 42/2/1 40/2/1 39/2/1
f 43/1/1 41/1/1 40/1/1
f 43/2/1 40/2/1 42/2/1
f 44/1/1 41/1/1 43/1/1
f 52/2/1 46/2/1 45/2/1
f 53/2/1 46/2/1 52/2/1
f 54/1/1 48/1/1 47/1/1
f 55/2/1 49/2/1 48/2/1
f 55/1/1 48/1/1 54/1/1
f 56/2/1 49/2/1 55/2/1
f 59/3/1 51/3/1 50/3/1
f 60/3/1 51/3/1 59/3/1
f 61/3/1 58/3/1 57/3/1
f 62/3/1 58/3/1 61/3/1
f 65/2/1 64/2/1 63/2/1
f 66/2/1 64/2/1 65/2/1
f 67/3/2 68/3/2 71/3/2
f 71/3/2 68/3/2 72/3/2
f 69/3/2 70/3/2 73/3/2
f 73/3/2 70/3/2 74/3/2
f 75/2/2 76/2/2 79/2/2
f 76/1/2 77/1/2 80/1/2
f 79/2/2 76/2/2 80/2/2
f 77/2/2 78/2/2 81/2/2
f 80/1/2 77/1/2 81/1/2
f 81/2/2 78/2/2 82/2/2
f 83/3/2 84/3/2 87/3/2
f 87/3/2 84/3/2 88/3/2
f 85/3/2 86/3/2 89/3/2
f 89/3/2 86/3/2 90/3/2
f 91/2/2 92/2/2 93/2/2
f 93/2/2 92/2/2 94/2/2
f 95/3/2 96/3/2 99/3/2
f 99/3/2 96/3/2 100/3/2
f 97/3/2 98/3/2 101/3/2
f 101/3/2 98/3/2 102/3/2
f 103/2/2 104/2/2 107/2/2
f 104/1/2 105/1/2 108/1/2
f 107/2/2 104/2/2 108/2/2
f 105/2/2 106/2/2 109/2/2
f 108/1/2 105/1/2 109/1/2
f 109/2/2 106/2/2 110/2/2
f 111/3/2 112/3/2 113/3/2
f 113/3/2 112/3/2 114/3/2
f 111/3/2 113/3/2 115/3/2
f 115/3/2 113/3/2 116/3/2
f 114/3/2 112/3/2 117/3/2
f 117/3/2 112/3/2 118/3/2
f 121/3/3 120/3/3 119/3/3
f 122/3/3 120/3/3 121/3/3
f 123/3/3 121/3/3 119/3/3
f 125/3/3 123/3/3 119/3/3
f 125/3/3 124/3/3 123/3/3
f 126/3/3 124/3/3 125/3/3
f 127/3/3 125/3/3 119/3/3
f 129/3/3 127/3/3 119/3/3
f 129/3/3 128/3/3 127/3/3
f 130/3/3 128/3/3 129/3/3
f 131/3/3 129/3/3 119/3/3
f 132/3/3 129/3/3 131/3/3
f 135/2/3 134/2/3 133/2/3
f 136/2/3 134/2/3 135/2/3
f 139/1/3 138/1/3 137/1/3
f 140/1/3 138/1/3 139/1/3
f 143/1/3 142/1/3 141/1/3
f 144/1/3 142/1/3 143/1/3
f 147/3/3 146/3/3 145/3/3
f 148/3/3 146/3/3 147/3/3
f 151/3/3 150/3/3 149/3/3
f 152/3/3 150/3/3 151/3/3
f 155/3/3 154/3/3 153/3/3
f 156/3/3 154/3/3 155/3/3
f 159/3/3 158/3/3 157/3/3
f 160/3/3 158/3/3 159/3/3
f 163/3/3 162/3/3 161/3/3
f 164/3/3 162/3/3 163/3/3
f 167/3/3 166/3/3 165/3/3
f 168/3/3 166/3/3 167/3/3
f 169/3/4 170/3/4 171/3/4
f 171/3/4 170/3/4 172/3/4
f 173/3/4 174/3/4 175/3/4
f 175/3/4 174/3/4 176/3/4
f 177/3/4 178/3/4 179/3/4
f 179/3/4 178/3/4 180/3/4
f 181/3/4 182/3/4 183/3/4
f 183/3/4 182/3/4 184/3/4
f 185/3/4 186/3/4 187/3/4
f 187/3/4 186/3/4 188/3/4
f 189/3/4 190/3/4 191/3/4
f 191/3/4 190/3/4 192/3/4
f 193/3/4 194/3/4 195/3/4
f 195/3/4 194/3/4 196/3/4
f 197/2/4 198/2/4 199/2/4
f 199/2/4 198/2/4 200/2/4
f 201/1/4 202/1/4 203/1/4
f 203/1/4 202/1/4 204/1/4
f 205/3/4 206/3/4 207/3/4
f 207/3/4 206/3/4 208/3/4
f 205/3/4 207/3/4 209/3/4
f 205/3/4 209/3/4 211/3/4
f 209/3/4 210/3/4 211/3/4
f 211/3/4 210/3/4 212/3/4
f 205/3/4 211/3/4 213/3/4
f 205/3/4 213/3/4 215/3/4
f 213/3/4 214/3/4 215/3/4
f 215/3/4 214/3/4 216/3/4
f 205/3/4 215/3/4 217/3/4
f 217/3/4 215/3/4 218/3/4
f 221/3/5 220/3/5 219/3/5
f 222/3/5 220/3/5 221/3/5
f 225/3/6 226/3/6 231/3/6
f 229/3/6 230/3/6 232/3/6
f 223/3/6 224/3/6 233/3/6
f 233/3/6 224/3/6 234/3/6
f 227/3/6 228/3/6 235/3/6
f 225/3/6 231/3/6 237/3/6
f 232/3/6 230/3/6 239/3/6
f 237/3/6 238/3/6 240/3/6
f 225/3/6 237/3/6 240/3/6
f 240/3/6 238/3/6 241/3/6
f 235/3/6 236/3/6 242/3/6
f 227/3/6 235/3/6 242/3/6
f 242/3/6 236/3/6 243/3/6
f 240/3/6 241/3/6 244/3/6
f 244/3/6 241/3/6 245/3/6
f 240/3/6 244/3/6 246/3/6
f 246/3/6 244/3/6 247/3/6
f 227/3/6 242/3/6 248/3/6
f 246/3/6 247/3/6 249/3/6
f 249/3/6 247/3/6 250/3/6
f 227/3/6 248/3/6 251/3/6
f 251/3/6 248/3/6 252/3/6
f 239/3/6 230/3/6 253/3/6
f 253/3/6 230/3/6 254/3/6
f 255/3/6 256/3/6 262/3/6
f 262/3/6 256/3/6 263/3/6
f 257/3/6 258/3/6 264/3/6
f 264/3/6 258/3/6 265/3/6
f 259/3/6 260/3/6 266/3/6
f 264/3/6 265/3/6 267/3/6
f 265/3/6 266/3/6 267/3/6
f 262/3/6 263/3/6 267/3/6
f 261/3/6 262/3/6 267/3/6
f 263/3/6 264/3/6 267/3/6
f 267/3/6 266/3/6 268/3/6
f 268/3/6 266/3/6 269/3/6
f 269/3/6 266/3/6 270/3/6
f 270/3/6 266/3/6 271/3/6
f 271/3/6 266/3/6 272/3/6
f 266/3/6 260/3/6 273/3/6
f 272/3/6 266/3/6 273/3/6
f 273/3/6 260/3/6 274/3/6
f 270/2/6 271/2/6 275/2/6
f 275/2/6 271/2/6 276/2/6
f 272/2/6 273/2/6 277/2/6
f 277/2/6 273/2/6 278/2/6
f 268/2/6 269/2/6 280/2/6
f 272/2/6 277/2/6 281/2/6
f 277/1/6 278/1/6 282/1/6
f 281/2/6 277/2/6 282/2/6
f 282/1/6 278/1/6 283/1/6
f 275/1/6 276/1/6 284/1/6
f 284/1/6 276/1/6 285/1/6
f 276/2/6 271/2/6 286/2/6
f 285/1/6 276/1/6 286/1/6
f 283/1/6 278/1/6 287/1/6
f 282/2/6 283/2/6 287/2/6
f 287/1/6 278/1/6 288/1/6
f 279/2/6 280/2/6 289/2/6
f 280/2/6 269/2/6 289/2/6
f 289/2/6 269/2/6 290/2/6
f 285/2/6 286/2/6 291/2/6
f 286/2/6 271/2/6 292/2/6
f 291/2/6 286/2/6 292/2/6
f 287/2/6 288/2/6 294/2/6
f 282/2/6 287/2/6 294/2/6
f 294/2/6 288/2/6 295/2/6
f 291/1/6 292/1/6 297/1/6
f 289/1/6 290/1/6 298/1/6
f 279/2/6 289/2/6 298/2/6
f 298/1/6 290/1/6 299/1/6
f 296/1/6 297/1/6 300/1/6
f 292/2/6 271/2/6 301/2/6
f 300/1/6 297/1/6 301/1/6
f 297/1/6 292/1/6 301/1/6
f 293/1/6 294/1/6 302/1/6
f 294/1/6 295/1/6 302/1/6
f 295/2/6 288/2/6 303/2/6
f 302/1/6 295/1/6 303/1/6
f 298/2/6 299/2/6 304/2/6
f 279/2/6 298/2/6 304/2/6
f 304/2/6 299/2/6 305/2/6
f 300/2/6 301/2/6 306/2/6
f 301/2/6 271/2/6 307/2/6
f 306/2/6 301/2/6 307/2/6
f 302/2/6 303/2/6 308/2/6
f 303/2/6 288/2/6 309/2/6
f 308/2/6 303/2/6 309/2/6
f 308/3/6 309/3/6 311/3/6
f 309/3/6 310/3/6 311/3/6
f 307/3/6 308/3/6 311/3/6
f 306/3/6 307/3/6 311/3/6
f 305/3/6 306/3/6 311/3/6
f 304/3/6 305/3/6 311/3/6
f 311/3/6 310/3/6 312/3/6
f 312/3/6 310/3/6 313/3/6
f 313/3/6 310/3/6 314/3/6
f 314/3/6 310/3/6 315/3/6
f 315/3/6 310/3/6 316/3/6
f 312/3/6 313/3/6 317/3/6
f 317/3/6 313/3/6 318/3/6
f 314/3/6 315/3/6 319/3/6
f 319/3/6 315/3/6 320/3/6
f 316/3/6 310/3/6 321/3/6
f 321/3/6 310/3/6 322/3/6
f 323/3/6 324/3/6 329/3/6
f 329/3/6 324/3/6 330/3/6
f 325/3/6 326/3/6 331/3/6
f 331/3/6 326/3/6 332/3/6
f 327/3/6 328/3/6 333/3/6
f 333/3/6 328/3/6 334/3/6
f 335/3/6 336/3/6 341/3/6
f 341/3/6 336/3/6 342/3/6
f 337/3/6 338/3/6 343/3/6
f 343/3/6 338/3/6 344/3/6
f 339/3/6 340/3/6 345/3/6
f 345/3/6 340/3/6 346/3/6
